<?xml version="1.0" encoding="UTF-8" standalone="no"?>
<!-- Created with Inkscape (http://www.inkscape.org/) -->

<svg
   xmlns:dc="http://purl.org/dc/elements/1.1/"
   xmlns:cc="http://creativecommons.org/ns#"
   xmlns:rdf="http://www.w3.org/1999/02/22-rdf-syntax-ns#"
   xmlns:svg="http://www.w3.org/2000/svg"
   xmlns="http://www.w3.org/2000/svg"
   xmlns:sodipodi="http://sodipodi.sourceforge.net/DTD/sodipodi-0.dtd"
   xmlns:inkscape="http://www.inkscape.org/namespaces/inkscape"
   width="210mm"
   height="297mm"
   viewBox="0 0 210 297"
   version="1.1"
   id="svg8"
   inkscape:version="0.92.5 (2060ec1f9f, 2020-04-08)"
   sodipodi:docname="buildroot_epbf_process.svg">
  <defs
     id="defs2">
    <marker
       inkscape:isstock="true"
       style="overflow:visible;"
       id="marker1158"
       refX="0.0"
       refY="0.0"
       orient="auto"
       inkscape:stockid="Arrow1Lend">
      <path
         transform="scale(0.8) rotate(180) translate(12.5,0)"
         style="fill-rule:evenodd;stroke:#03a9f4;stroke-width:1pt;stroke-opacity:1;fill:#03a9f4;fill-opacity:1"
         d="M 0.0,0.0 L 5.0,-5.0 L -12.5,0.0 L 5.0,5.0 L 0.0,0.0 z "
         id="path1156" />
    </marker>
    <marker
       inkscape:stockid="Arrow1Lend"
       orient="auto"
       refY="0.0"
       refX="0.0"
       id="Arrow1Lend"
       style="overflow:visible;"
       inkscape:isstock="true"
       inkscape:collect="always">
      <path
         id="path863"
         d="M 0.0,0.0 L 5.0,-5.0 L -12.5,0.0 L 5.0,5.0 L 0.0,0.0 z "
         style="fill-rule:evenodd;stroke:#03a9f4;stroke-width:1pt;stroke-opacity:1;fill:#03a9f4;fill-opacity:1"
         transform="scale(0.8) rotate(180) translate(12.5,0)" />
    </marker>
    <marker
       inkscape:isstock="true"
       style="overflow:visible"
       id="marker1158-5"
       refX="0"
       refY="0"
       orient="auto"
       inkscape:stockid="Arrow1Lend">
      <path
         inkscape:connector-curvature="0"
         transform="matrix(-0.8,0,0,-0.8,-10,0)"
         style="fill:#03a9f4;fill-opacity:1;fill-rule:evenodd;stroke:#03a9f4;stroke-width:1.00000003pt;stroke-opacity:1"
         d="M 0,0 5,-5 -12.5,0 5,5 Z"
         id="path1156-6" />
    </marker>
  </defs>
  <sodipodi:namedview
     id="base"
     pagecolor="#ffffff"
     bordercolor="#666666"
     borderopacity="1.0"
     inkscape:pageopacity="0.0"
     inkscape:pageshadow="2"
     inkscape:zoom="7.919596"
     inkscape:cx="331.60175"
     inkscape:cy="526.58008"
     inkscape:document-units="mm"
     inkscape:current-layer="layer2"
     showgrid="false"
     inkscape:pagecheckerboard="true"
     inkscape:window-width="1920"
     inkscape:window-height="997"
     inkscape:window-x="0"
     inkscape:window-y="0"
     inkscape:window-maximized="1" />
  <metadata
     id="metadata5">
    <rdf:RDF>
      <cc:Work
         rdf:about="">
        <dc:format>image/svg+xml</dc:format>
        <dc:type
           rdf:resource="http://purl.org/dc/dcmitype/StillImage" />
        <dc:title />
      </cc:Work>
    </rdf:RDF>
  </metadata>
  <g
     inkscape:label="Base-fig[1-]"
     inkscape:groupmode="layer"
     id="layer1"
     style="display:inline"
     sodipodi:insensitive="true">
    <path
       inkscape:connector-curvature="0"
       style="fill:#ffffff;stroke-width:0.26458332"
       d="m 50.704104,149.24897 h -0.0786 c 0.19896,0 0.36009,-0.16457 0.36009,-0.36751 v -8.7413 c 0,-0.2032 -0.16113,-0.36751 -0.36009,-0.36751 h -13.0646 c -0.19897,0 -0.36036,0.16431 -0.36036,0.36751 v 8.74157 c 0,0.20293 0.16139,0.3675 0.36036,0.3675 h -0.086 l -1.32292,1.28376 c 0,0.44053 0.35666,0.88133 0.79296,0.88133 h 14.28935 c 0.41143,0 0.79269,-0.43974 0.79269,-0.88159 l -1.32291,-1.28376 m -6.61088,-9.27126 a 0.20558125,0.20558125 0 1 1 2.6e-4,0.41089 0.20558125,0.20558125 0 0 1 -2.6e-4,-0.41089 m -6.51113,9.53584 h 13.01459 l 0.77734,0.7546 h -5.81819 l -0.1053,-0.1397 h -2.71462 l -0.10557,0.1397 h -5.82586 l 0.77761,-0.7546 m 7.64937,1.59332 h -2.28442 c -0.0783,0 -0.28681,0 -0.28681,-0.2667 h 2.8583 c 0,0.2667 -0.21273,0.2667 -0.28707,0.2667"
       id="path2" />
    <path
       style="fill:none;stroke:#03a9f4;stroke-width:0.26499999;stroke-linecap:butt;stroke-linejoin:miter;stroke-miterlimit:4;stroke-dasharray:none;stroke-opacity:1;marker-end:url(#Arrow1Lend)"
       d="m 51.115295,145.32454 h 16.83798"
       id="path53"
       inkscape:connector-curvature="0" />
    <path
       inkscape:connector-curvature="0"
       id="path1154"
       d="M 83.219635,145.32454 H 99.24496"
       style="fill:none;fill-opacity:1;stroke:#03a9f4;stroke-width:0.25852603;stroke-linecap:butt;stroke-linejoin:miter;stroke-miterlimit:4;stroke-dasharray:none;stroke-opacity:1;marker-end:url(#marker1158)" />
    <text
       xml:space="preserve"
       style="font-style:normal;font-weight:normal;font-size:10.25792408px;line-height:1.25;font-family:sans-serif;letter-spacing:0px;word-spacing:0px;fill:#03a9f4;fill-opacity:1;stroke:none;stroke-width:0.25644809"
       x="69.846848"
       y="147.41853"
       id="text1390"><tspan
         sodipodi:role="line"
         id="tspan1388"
         x="69.846848"
         y="147.41853"
         style="font-size:2.73544645px;fill:#03a9f4;fill-opacity:1;stroke:none;stroke-width:0.25644809">Buildroot</tspan></text>
    <text
       xml:space="preserve"
       style="font-style:normal;font-weight:normal;font-size:1.66259372px;line-height:1.25;font-family:sans-serif;letter-spacing:0px;word-spacing:0px;fill:#03a9f4;fill-opacity:1;stroke:none;stroke-width:0.15586816"
       x="38.279976"
       y="152.7746"
       id="text1394"><tspan
         sodipodi:role="line"
         id="tspan1392"
         x="38.279976"
         y="152.7746"
         style="font-size:1.24694526px;fill:#03a9f4;fill-opacity:1;stroke:none;stroke-width:0.15586816">$ make linux-menuconfig</tspan><tspan
         sodipodi:role="line"
         x="38.279976"
         y="154.85284"
         style="font-size:1.24694526px;fill:#03a9f4;fill-opacity:1;stroke:none;stroke-width:0.15586816"
         id="tspan907">CONFIG_KPROBE_EVENTS=y</tspan><tspan
         sodipodi:role="line"
         x="38.279976"
         y="156.93108"
         style="font-size:1.24694526px;fill:#03a9f4;fill-opacity:1;stroke:none;stroke-width:0.15586816"
         id="tspan909">CONFIG_DEBUG_INFO=y</tspan><tspan
         sodipodi:role="line"
         x="38.279976"
         y="159.00932"
         style="font-size:1.24694526px;fill:#03a9f4;fill-opacity:1;stroke:none;stroke-width:0.15586816"
         id="tspan911">CONFIG_DEBUG_INFO_BTF=y</tspan><tspan
         sodipodi:role="line"
         x="38.279976"
         y="161.08757"
         style="font-size:1.24694526px;fill:#03a9f4;fill-opacity:1;stroke:none;stroke-width:0.15586816"
         id="tspan913">CONFIG_IKHEADERS=y</tspan><tspan
         sodipodi:role="line"
         x="38.279976"
         y="163.1658"
         style="font-size:1.24694526px;fill:#03a9f4;fill-opacity:1;stroke:none;stroke-width:0.15586816"
         id="tspan915">CONFIG_BPF_LSM=y</tspan></text>
    <g
       transform="matrix(0.26458333,0,0,0.26458333,98.748276,139.77265)"
       style="display:inline;fill:none;stroke:#ffffff;stroke-width:4;stroke-opacity:1"
       id="g8">
      <circle
         cx="24"
         cy="24"
         r="18"
         id="circle2"
         style="stroke:#ffffff;stroke-opacity:1" />
      <path
         style="stroke:#ffffff;stroke-linecap:round;stroke-opacity:1"
         inkscape:connector-curvature="0"
         d="M 13,24 C 13,17.925 17.925,13 24,13"
         id="path4" />
      <circle
         cx="24"
         cy="24"
         r="5"
         id="circle6"
         style="stroke:#ffffff;stroke-opacity:1" />
    </g>
    <path
       inkscape:connector-curvature="0"
       style="display:inline;fill:#ffffff;stroke-width:0.65196502"
       d="m 73.9609,139.67895 v 0.91667 c -3.237006,0.83517 -5.60038,3.70055 -5.78619,7.1514 -0.764103,0.26731 -1.385424,0.86059 -1.385424,1.7114 v 1.9559 h 18.25502 v -1.9559 c 0,-0.85081 -0.621322,-1.44409 -1.385427,-1.7114 -0.185818,-3.45085 -2.549183,-6.31623 -5.786189,-7.1514 v -0.91667 z m 1.324142,1.30394 h 1.28372 a 0.64805324,0.64805324 0 0 0 0,0.22424 v 3.68752 h 1.303928 v -2.93385 c 2.437047,0.76933 4.280802,2.91623 4.543544,5.5417 h -1.283718 v 1.30394 h 1.955895 c 0.369013,0 0.651965,0.28296 0.651965,0.65196 v 0.65196 H 68.093215 v -0.65196 c 0,-0.369 0.282952,-0.65196 0.651967,-0.65196 h 1.955894 v -1.30394 h -1.28372 c 0.262742,-2.62547 2.105846,-4.77237 4.543544,-5.5417 v 2.93385 h 1.30393 v -3.58581 c 0.03259,-0.1043 0.04108,-0.21635 0.02021,-0.32598 z"
       id="path2-3" />
    <path
       id="path894"
       d="m 107.81167,144.53187 a 0.15485521,0.15485521 0 0 0 -0.0511,-0.0334 0.13308642,0.13308642 0 0 0 -0.0609,0 0.16598698,0.16598698 0 0 0 -0.0609,0.0119 0.14063128,0.14063128 0 0 0 -0.0491,0.0354 1.5171358,1.5171358 0 0 1 -0.85827,0.44626 1.5118174,1.5118174 0 0 0 -0.26716,-0.2595 1.5296282,1.5296282 0 0 0 -0.42808,-0.22214 1.5016751,1.5016751 0 0 1 0.17873,-0.99493 c 0.009,-0.0187 0.0157,-0.0385 0.0197,-0.0589 a 0.15807105,0.15807105 0 0 0 0,-0.061 0.1316022,0.1316022 0 0 0 -0.0276,-0.055 0.13518909,0.13518909 0 0 0 -0.0471,-0.0413 0.14533137,0.14533137 0 0 0 -0.0589,-0.0177 0.12665475,0.12665475 0 0 0 -0.0609,0 0.14867089,0.14867089 0 0 0 -0.0944,0.0747 1.8099013,1.8099013 0 0 0 -0.22968,1.0872 0.99926142,0.99926142 0 0 0 -0.88585,0.37155 0.97279257,0.97279257 0 0 0 -0.0825,0.13569 3.1401473,3.1401473 0 0 0 -1.82845,-0.0177 c -0.44972,0.15337 -0.66185,0.4679 -0.56364,0.84143 0.0883,0.34212 0.43204,0.6783 0.87199,0.85925 a 1.3464487,1.3464487 0 0 0 0.26902,1.5493 l -0.12567,0.68806 0.6266,-0.31255 a 1.4533137,1.4533137 0 0 0 0.66568,0.17106 1.3119404,1.3119404 0 0 0 0.23178,-0.0216 1.3563436,1.3563436 0 0 0 0.66185,-0.33036 1.4665482,1.4665482 0 0 0 1.04886,0.58986 h 0.0235 c 0.39282,-0.0117 0.63043,-0.30278 0.64811,-0.7864 a 3.1483106,3.1483106 0 0 0 -0.5342,-1.75573 0.83488234,0.83488234 0 0 0 0.10613,-0.11602 0.97167938,0.97167938 0 0 0 0.14731,-0.8277 1.3698255,1.3698255 0 0 0 -0.0805,-0.2261 1.8105196,1.8105196 0 0 0 0.90538,-0.5112 0.15460784,0.15460784 0 0 0 0.0431,-0.11206 0.15646313,0.15646313 0 0 0 -0.0471,-0.11206 z m -2.00323,1.83241 a 4.5885134,4.5885134 0 0 1 0.37898,0.85925 0.81855575,0.81855575 0 0 1 -0.59902,0.57403 1.2420576,1.2420576 0 0 1 -0.0923,-0.3441 1.4373582,1.4373582 0 0 1 0.31231,-1.08918 z m -0.46543,0.13371 a 1.8886893,1.8886893 0 0 0 -0.17291,0.7864 0.70031169,0.70031169 0 0 1 -0.51652,-0.14546 0.68856151,0.68856151 0 0 1 -0.28089,-0.45022 1.9014292,1.9014292 0 0 0 0.7091,-0.3932 c 0.0792,0.0753 0.16685,0.14138 0.26122,0.19654 z m -1.19419,-0.80409 c 0.31256,0.0134 0.62313,0.0575 0.92703,0.13173 a 1.4277107,1.4277107 0 0 1 -0.95251,0.61138 c -0.11787,0.022 -0.23822,0.0272 -0.35745,0.0157 a 0.81657678,0.81657678 0 0 1 0.39283,-0.74509 z m -0.39283,-0.5781 c 0.6423,0 1.2334,0.21434 1.32963,0.33815 0.0259,0.0323 0.0439,0.0699 0.0531,0.11021 0.01,0.04 0.01,0.0817 0,0.12182 a 4.7515319,4.7515319 0 0 0 -0.81509,-0.12578 3.8666803,3.8666803 0 0 0 -0.86605,0.0393 0.75485737,0.75485737 0 0 1 -0.36142,-0.3932 2.3702001,2.3702001 0 0 1 0.66383,-0.0886 z m -1.09586,0.57414 c -0.0511,-0.19665 0.0511,-0.34013 0.29858,-0.43846 a 1.0121248,1.0121248 0 0 0 0.29066,0.3932 c -0.1833,0.0445 -0.36054,0.11045 -0.52838,0.19666 a 0.5612883,0.5612883 0 0 1 -0.0609,-0.14162 z m 0.14138,0.25554 a 2.7330956,2.7330956 0 0 1 1.13135,-0.25158 0.98441907,0.98441907 0 0 0 -0.29857,0.72938 1.4800299,1.4800299 0 0 1 -0.8386,-0.4778 z m 2.03278,2.436 a 1.1787302,1.1787302 0 0 1 -0.91911,-0.25751 c -0.42227,-0.31651 -0.68151,-0.85727 -0.39283,-1.40966 0.0491,0.0117 0.10018,0.0197 0.15127,0.0274 a 1.388502,1.388502 0 0 0 0.55968,0.95362 1.4155894,1.4155894 0 0 0 0.85628,0.28893 c 0.0737,0 0.14731,-0.006 0.22003,-0.0177 0.0196,0.0452 0.0412,0.0884 0.0648,0.13172 a 1.0634546,1.0634546 0 0 1 -0.54211,0.28312 z m 1.49264,0.21237 a 1.4520768,1.4520768 0 0 1 -0.68151,-0.67829 0.98206902,0.98206902 0 0 0 0.60495,-0.48757 2.7870228,2.7870228 0 0 1 0.0766,1.17365 z m 0.28671,0.055 c -0.0507,4e-4 -0.10142,-0.004 -0.15115,-0.0137 0.0327,-0.18689 0.0438,-0.37687 0.0333,-0.56624 a 1.0231329,1.0231329 0 0 0 0.45566,0.16908 c -0.0255,0.26543 -0.13939,0.40495 -0.33778,0.41089 z m 0.34372,-0.55251 a 0.76128904,0.76128904 0 0 1 -0.47915,-0.23388 3.8034766,3.8034766 0 0 0 -0.20829,-0.8454 4.5442338,4.5442338 0 0 0 -0.34954,-0.74719 0.26926503,0.26926503 0 0 1 0.2376,-0.0177 c 0.19641,0.0787 0.79741,0.96537 0.79938,1.84416 z"
       style="display:inline;opacity:0.95999995;fill:#ffeb3b;fill-opacity:1;stroke-width:0.12368627"
       inkscape:connector-curvature="0" />
  </g>
  <g
     inkscape:groupmode="layer"
     id="layer2"
     inkscape:label="ISO-failed-fig1"
     style="display:inline">
    <path
       id="path903"
       d="m 73.9609,139.67895 v 0.91667 c -3.237006,0.83517 -5.60038,3.70055 -5.78619,7.1514 -0.764103,0.26731 -1.385424,0.86059 -1.385424,1.7114 v 1.9559 h 18.25502 v -1.9559 c 0,-0.85081 -0.621322,-1.44409 -1.385427,-1.7114 -0.185818,-3.45085 -2.549183,-6.31623 -5.786189,-7.1514 v -0.91667 z m 1.324142,1.30394 h 1.28372 a 0.64805324,0.64805324 0 0 0 0,0.22424 v 3.68752 h 1.303928 v -2.93385 c 2.437047,0.76933 4.280802,2.91623 4.543544,5.5417 h -1.283718 v 1.30394 h 1.955895 c 0.369013,0 0.651965,0.28296 0.651965,0.65196 v 0.65196 H 68.093215 v -0.65196 c 0,-0.369 0.282952,-0.65196 0.651967,-0.65196 h 1.955894 v -1.30394 h -1.28372 c 0.262742,-2.62547 2.105846,-4.77237 4.543544,-5.5417 v 2.93385 h 1.30393 v -3.58581 c 0.03259,-0.1043 0.04108,-0.21635 0.02021,-0.32598 z"
       style="display:inline;fill:#f44336;fill-opacity:1;stroke-width:0.65196502"
       inkscape:connector-curvature="0" />
  </g>
  <g
     inkscape:groupmode="layer"
     id="layer4"
     inkscape:label="Pahole-fig2"
     style="display:none;opacity:0.98000004"
     sodipodi:insensitive="true">
    <path
       inkscape:connector-curvature="0"
       style="fill:#ffffff;stroke-width:0.01653646"
       d="m 81.582186,159.70911 -3.558646,-3.55865 c -0.09922,-0.0992 -0.233164,-0.15544 -0.373724,-0.15544 h -7.024687 c -0.292694,0 -0.529167,0.23647 -0.529167,0.52917 v 13.75833 c 0,0.2927 0.236473,0.52917 0.529167,0.52917 h 10.583333 c 0.292695,0 0.529167,-0.23647 0.529167,-0.52917 v -10.19803 c 0,-0.14056 -0.05622,-0.27616 -0.155443,-0.37538 z m -4.177109,-2.4937 3.112161,3.11216 h -3.112161 z m 3.141927,12.40565 h -9.260417 v -12.43541 h 4.994011 v 3.57187 a 0.69453125,0.69453125 0 0 0 0.694531,0.69453 h 3.571875 z"
       id="path4-7" />
    <text
       id="text1447-5"
       y="171.75937"
       x="72.778236"
       style="font-style:normal;font-weight:normal;font-size:1.66259372px;line-height:1.25;font-family:sans-serif;letter-spacing:0px;word-spacing:0px;display:inline;fill:#03a9f4;fill-opacity:1;stroke:none;stroke-width:0.15586816"
       xml:space="preserve"><tspan
         style="font-size:1.24694526px;fill:#03a9f4;fill-opacity:1;stroke:none;stroke-width:0.15586816"
         y="171.75937"
         x="72.778236"
         id="tspan1445-3"
         sodipodi:role="line">pahole.mk</tspan></text>
    <text
       xml:space="preserve"
       style="font-style:normal;font-weight:normal;font-size:4.72745752px;line-height:1.25;font-family:sans-serif;letter-spacing:0px;word-spacing:0px;display:inline;fill:#03a9f4;fill-opacity:1;stroke:none;stroke-width:0.44319913"
       x="71.20826"
       y="164.66382"
       id="text1503"><tspan
         sodipodi:role="line"
         id="tspan1501"
         x="71.20826"
         y="168.96521"
         style="font-size:3.54559302px;fill:#03a9f4;fill-opacity:1;stroke:none;stroke-width:0.44319913" /></text>
    <path
       inkscape:connector-curvature="0"
       id="path1154-2"
       d="m 75.916796,156.0099 v -4.40538"
       style="fill:none;fill-opacity:1;stroke:#03a9f4;stroke-width:0.13554783;stroke-linecap:butt;stroke-linejoin:miter;stroke-miterlimit:4;stroke-dasharray:none;stroke-opacity:1;marker-end:url(#marker1158-5)" />
    <g
       id="g888"
       style="display:inline;fill:none;stroke:#8bc34a;stroke-width:4;stroke-opacity:1"
       transform="matrix(0.26458333,0,0,0.26458333,98.748276,139.77265)">
      <circle
         style="stroke:#8bc34a;stroke-opacity:1"
         id="circle882"
         r="18"
         cy="24"
         cx="24" />
      <path
         id="path884"
         d="M 13,24 C 13,17.925 17.925,13 24,13"
         inkscape:connector-curvature="0"
         style="stroke:#8bc34a;stroke-linecap:round;stroke-opacity:1" />
      <circle
         style="stroke:#8bc34a;stroke-opacity:1"
         id="circle886"
         r="5"
         cy="24"
         cx="24" />
    </g>
    <path
       inkscape:connector-curvature="0"
       style="display:inline;opacity:0.95999995;fill:#ffeb3b;fill-opacity:1;stroke-width:0.12368627"
       d="m 107.81167,144.53187 a 0.15485521,0.15485521 0 0 0 -0.0511,-0.0334 0.13308642,0.13308642 0 0 0 -0.0609,0 0.16598698,0.16598698 0 0 0 -0.0609,0.0119 0.14063128,0.14063128 0 0 0 -0.0491,0.0354 1.5171358,1.5171358 0 0 1 -0.85827,0.44626 1.5118174,1.5118174 0 0 0 -0.26716,-0.2595 1.5296282,1.5296282 0 0 0 -0.42808,-0.22214 1.5016751,1.5016751 0 0 1 0.17873,-0.99493 c 0.009,-0.0187 0.0157,-0.0385 0.0197,-0.0589 a 0.15807105,0.15807105 0 0 0 0,-0.061 0.1316022,0.1316022 0 0 0 -0.0276,-0.055 0.13518909,0.13518909 0 0 0 -0.0471,-0.0413 0.14533137,0.14533137 0 0 0 -0.0589,-0.0177 0.12665475,0.12665475 0 0 0 -0.0609,0 0.14867089,0.14867089 0 0 0 -0.0944,0.0747 1.8099013,1.8099013 0 0 0 -0.22968,1.0872 0.99926142,0.99926142 0 0 0 -0.88585,0.37155 0.97279257,0.97279257 0 0 0 -0.0825,0.13569 3.1401473,3.1401473 0 0 0 -1.82845,-0.0177 c -0.44972,0.15337 -0.66185,0.4679 -0.56364,0.84143 0.0883,0.34212 0.43204,0.6783 0.87199,0.85925 a 1.3464487,1.3464487 0 0 0 0.26902,1.5493 l -0.12567,0.68806 0.6266,-0.31255 a 1.4533137,1.4533137 0 0 0 0.66568,0.17106 1.3119404,1.3119404 0 0 0 0.23178,-0.0216 1.3563436,1.3563436 0 0 0 0.66185,-0.33036 1.4665482,1.4665482 0 0 0 1.04886,0.58986 h 0.0235 c 0.39282,-0.0117 0.63043,-0.30278 0.64811,-0.7864 a 3.1483106,3.1483106 0 0 0 -0.5342,-1.75573 0.83488234,0.83488234 0 0 0 0.10613,-0.11602 0.97167938,0.97167938 0 0 0 0.14731,-0.8277 1.3698255,1.3698255 0 0 0 -0.0805,-0.2261 1.8105196,1.8105196 0 0 0 0.90538,-0.5112 0.15460784,0.15460784 0 0 0 0.0431,-0.11206 0.15646313,0.15646313 0 0 0 -0.0471,-0.11206 z m -2.00323,1.83241 a 4.5885134,4.5885134 0 0 1 0.37898,0.85925 0.81855575,0.81855575 0 0 1 -0.59902,0.57403 1.2420576,1.2420576 0 0 1 -0.0923,-0.3441 1.4373582,1.4373582 0 0 1 0.31231,-1.08918 z m -0.46543,0.13371 a 1.8886893,1.8886893 0 0 0 -0.17291,0.7864 0.70031169,0.70031169 0 0 1 -0.51652,-0.14546 0.68856151,0.68856151 0 0 1 -0.28089,-0.45022 1.9014292,1.9014292 0 0 0 0.7091,-0.3932 c 0.0792,0.0753 0.16685,0.14138 0.26122,0.19654 z m -1.19419,-0.80409 c 0.31256,0.0134 0.62313,0.0575 0.92703,0.13173 a 1.4277107,1.4277107 0 0 1 -0.95251,0.61138 c -0.11787,0.022 -0.23822,0.0272 -0.35745,0.0157 a 0.81657678,0.81657678 0 0 1 0.39283,-0.74509 z m -0.39283,-0.5781 c 0.6423,0 1.2334,0.21434 1.32963,0.33815 0.0259,0.0323 0.0439,0.0699 0.0531,0.11021 0.01,0.04 0.01,0.0817 0,0.12182 a 4.7515319,4.7515319 0 0 0 -0.81509,-0.12578 3.8666803,3.8666803 0 0 0 -0.86605,0.0393 0.75485737,0.75485737 0 0 1 -0.36142,-0.3932 2.3702001,2.3702001 0 0 1 0.66383,-0.0886 z m -1.09586,0.57414 c -0.0511,-0.19665 0.0511,-0.34013 0.29858,-0.43846 a 1.0121248,1.0121248 0 0 0 0.29066,0.3932 c -0.1833,0.0445 -0.36054,0.11045 -0.52838,0.19666 a 0.5612883,0.5612883 0 0 1 -0.0609,-0.14162 z m 0.14138,0.25554 a 2.7330956,2.7330956 0 0 1 1.13135,-0.25158 0.98441907,0.98441907 0 0 0 -0.29857,0.72938 1.4800299,1.4800299 0 0 1 -0.8386,-0.4778 z m 2.03278,2.436 a 1.1787302,1.1787302 0 0 1 -0.91911,-0.25751 c -0.42227,-0.31651 -0.68151,-0.85727 -0.39283,-1.40966 0.0491,0.0117 0.10018,0.0197 0.15127,0.0274 a 1.388502,1.388502 0 0 0 0.55968,0.95362 1.4155894,1.4155894 0 0 0 0.85628,0.28893 c 0.0737,0 0.14731,-0.006 0.22003,-0.0177 0.0196,0.0452 0.0412,0.0884 0.0648,0.13172 a 1.0634546,1.0634546 0 0 1 -0.54211,0.28312 z m 1.49264,0.21237 a 1.4520768,1.4520768 0 0 1 -0.68151,-0.67829 0.98206902,0.98206902 0 0 0 0.60495,-0.48757 2.7870228,2.7870228 0 0 1 0.0766,1.17365 z m 0.28671,0.055 c -0.0507,4e-4 -0.10142,-0.004 -0.15115,-0.0137 0.0327,-0.18689 0.0438,-0.37687 0.0333,-0.56624 a 1.0231329,1.0231329 0 0 0 0.45566,0.16908 c -0.0255,0.26543 -0.13939,0.40495 -0.33778,0.41089 z m 0.34372,-0.55251 a 0.76128904,0.76128904 0 0 1 -0.47915,-0.23388 3.8034766,3.8034766 0 0 0 -0.20829,-0.8454 4.5442338,4.5442338 0 0 0 -0.34954,-0.74719 0.26926503,0.26926503 0 0 1 0.2376,-0.0177 c 0.19641,0.0787 0.79741,0.96537 0.79938,1.84416 z"
       id="path896" />
  </g>
</svg>
