<?xml version="1.0" encoding="UTF-8" standalone="no"?>
<!-- Created with Inkscape (http://www.inkscape.org/) -->

<svg
   xmlns:dc="http://purl.org/dc/elements/1.1/"
   xmlns:cc="http://creativecommons.org/ns#"
   xmlns:rdf="http://www.w3.org/1999/02/22-rdf-syntax-ns#"
   xmlns:svg="http://www.w3.org/2000/svg"
   xmlns="http://www.w3.org/2000/svg"
   xmlns:sodipodi="http://sodipodi.sourceforge.net/DTD/sodipodi-0.dtd"
   xmlns:inkscape="http://www.inkscape.org/namespaces/inkscape"
   width="309.68326mm"
   height="164.19798mm"
   viewBox="0 0 309.68325 164.19798"
   version="1.1"
   id="svg8"
   inkscape:version="0.92.5 (2060ec1f9f, 2020-04-08)"
   sodipodi:docname="k8s.svg">
  <defs
     id="defs2">
    <marker
       inkscape:isstock="true"
       style="overflow:visible"
       id="marker7019"
       refX="0"
       refY="0"
       orient="auto"
       inkscape:stockid="Arrow1Lend">
      <path
         transform="matrix(-0.8,0,0,-0.8,-10,0)"
         style="fill:#ffffff;fill-opacity:1;fill-rule:evenodd;stroke:#ffffff;stroke-width:1.00000003pt;stroke-opacity:1"
         d="M 0,0 5,-5 -12.5,0 5,5 Z"
         id="path7017"
         inkscape:connector-curvature="0" />
    </marker>
    <marker
       inkscape:stockid="Arrow1Lend"
       orient="auto"
       refY="0"
       refX="0"
       id="marker6911"
       style="overflow:visible"
       inkscape:isstock="true"
       inkscape:collect="always">
      <path
         id="path6909"
         d="M 0,0 5,-5 -12.5,0 5,5 Z"
         style="fill:#ffffff;fill-opacity:1;fill-rule:evenodd;stroke:#ffffff;stroke-width:1.00000003pt;stroke-opacity:1"
         transform="matrix(-0.8,0,0,-0.8,-10,0)"
         inkscape:connector-curvature="0" />
    </marker>
    <marker
       inkscape:isstock="true"
       style="overflow:visible"
       id="marker6811"
       refX="0"
       refY="0"
       orient="auto"
       inkscape:stockid="Arrow1Lstart">
      <path
         transform="matrix(0.8,0,0,0.8,10,0)"
         style="fill:#ffffff;fill-opacity:1;fill-rule:evenodd;stroke:#ffffff;stroke-width:1.00000003pt;stroke-opacity:1"
         d="M 0,0 5,-5 -12.5,0 5,5 Z"
         id="path6809"
         inkscape:connector-curvature="0" />
    </marker>
    <marker
       inkscape:stockid="Arrow1Lend"
       orient="auto"
       refY="0"
       refX="0"
       id="marker6767"
       style="overflow:visible"
       inkscape:isstock="true">
      <path
         id="path6765"
         d="M 0,0 5,-5 -12.5,0 5,5 Z"
         style="fill:#ffffff;fill-opacity:1;fill-rule:evenodd;stroke:#ffffff;stroke-width:1.00000003pt;stroke-opacity:1"
         transform="matrix(-0.8,0,0,-0.8,-10,0)"
         inkscape:connector-curvature="0" />
    </marker>
    <marker
       inkscape:isstock="true"
       style="overflow:visible"
       id="marker6307"
       refX="0"
       refY="0"
       orient="auto"
       inkscape:stockid="Arrow1Lend"
       inkscape:collect="always">
      <path
         transform="matrix(-0.8,0,0,-0.8,-10,0)"
         style="fill:#ffffff;fill-opacity:1;fill-rule:evenodd;stroke:#ffffff;stroke-width:1.00000003pt;stroke-opacity:1"
         d="M 0,0 5,-5 -12.5,0 5,5 Z"
         id="path6305"
         inkscape:connector-curvature="0" />
    </marker>
    <marker
       inkscape:stockid="Arrow1Lend"
       orient="auto"
       refY="0"
       refX="0"
       id="marker6231"
       style="overflow:visible"
       inkscape:isstock="true">
      <path
         id="path6229"
         d="M 0,0 5,-5 -12.5,0 5,5 Z"
         style="fill:#ffffff;fill-opacity:1;fill-rule:evenodd;stroke:#000000;stroke-width:1.00000003pt;stroke-opacity:1"
         transform="matrix(-0.8,0,0,-0.8,-10,0)"
         inkscape:connector-curvature="0" />
    </marker>
    <marker
       inkscape:isstock="true"
       style="overflow:visible"
       id="marker6193"
       refX="0"
       refY="0"
       orient="auto"
       inkscape:stockid="Arrow1Lstart">
      <path
         transform="matrix(0.8,0,0,0.8,10,0)"
         style="fill:#ffffff;fill-opacity:1;fill-rule:evenodd;stroke:#000000;stroke-width:1.00000003pt;stroke-opacity:1"
         d="M 0,0 5,-5 -12.5,0 5,5 Z"
         id="path6191"
         inkscape:connector-curvature="0" />
    </marker>
    <marker
       inkscape:isstock="true"
       style="overflow:visible"
       id="marker5824"
       refX="0"
       refY="0"
       orient="auto"
       inkscape:stockid="Arrow1Lend"
       inkscape:collect="always">
      <path
         transform="matrix(-0.8,0,0,-0.8,-10,0)"
         style="fill:#ffffff;fill-opacity:1;fill-rule:evenodd;stroke:#ffffff;stroke-width:1.00000003pt;stroke-opacity:1"
         d="M 0,0 5,-5 -12.5,0 5,5 Z"
         id="path5822"
         inkscape:connector-curvature="0" />
    </marker>
    <marker
       inkscape:stockid="Arrow1Lstart"
       orient="auto"
       refY="0"
       refX="0"
       id="marker5734"
       style="overflow:visible"
       inkscape:isstock="true"
       inkscape:collect="always">
      <path
         id="path5732"
         d="M 0,0 5,-5 -12.5,0 5,5 Z"
         style="fill:#ffffff;fill-opacity:1;fill-rule:evenodd;stroke:#ffffff;stroke-width:1.00000003pt;stroke-opacity:1"
         transform="matrix(0.8,0,0,0.8,10,0)"
         inkscape:connector-curvature="0" />
    </marker>
    <marker
       inkscape:stockid="Arrow1Lend"
       orient="auto"
       refY="0"
       refX="0"
       id="marker5682"
       style="overflow:visible"
       inkscape:isstock="true"
       inkscape:collect="always">
      <path
         id="path5680"
         d="M 0,0 5,-5 -12.5,0 5,5 Z"
         style="fill:#ffffff;fill-opacity:1;fill-rule:evenodd;stroke:#ffffff;stroke-width:1.00000003pt;stroke-opacity:1"
         transform="matrix(-0.8,0,0,-0.8,-10,0)"
         inkscape:connector-curvature="0" />
    </marker>
    <marker
       inkscape:isstock="true"
       style="overflow:visible"
       id="marker3783"
       refX="0"
       refY="0"
       orient="auto"
       inkscape:stockid="Arrow1Lend"
       inkscape:collect="always">
      <path
         transform="matrix(-0.8,0,0,-0.8,-10,0)"
         style="fill:#ffffff;fill-opacity:1;fill-rule:evenodd;stroke:#ffffff;stroke-width:1.00000003pt;stroke-opacity:1"
         d="M 0,0 5,-5 -12.5,0 5,5 Z"
         id="path3781"
         inkscape:connector-curvature="0" />
    </marker>
    <marker
       inkscape:isstock="true"
       style="overflow:visible"
       id="marker3755"
       refX="0"
       refY="0"
       orient="auto"
       inkscape:stockid="Arrow1Lstart"
       inkscape:collect="always">
      <path
         transform="matrix(0.8,0,0,0.8,10,0)"
         style="fill:#ffffff;fill-opacity:1;fill-rule:evenodd;stroke:#ffffff;stroke-width:1.00000003pt;stroke-opacity:1"
         d="M 0,0 5,-5 -12.5,0 5,5 Z"
         id="path3753"
         inkscape:connector-curvature="0" />
    </marker>
    <marker
       inkscape:stockid="Arrow1Lend"
       orient="auto"
       refY="0"
       refX="0"
       id="Arrow1Lend"
       style="overflow:visible"
       inkscape:isstock="true"
       inkscape:collect="always">
      <path
         id="path942"
         d="M 0,0 5,-5 -12.5,0 5,5 Z"
         style="fill:#ffffff;fill-opacity:1;fill-rule:evenodd;stroke:#ffffff;stroke-width:1.00000003pt;stroke-opacity:1"
         transform="matrix(-0.8,0,0,-0.8,-10,0)"
         inkscape:connector-curvature="0" />
    </marker>
    <marker
       inkscape:stockid="Arrow1Lstart"
       orient="auto"
       refY="0"
       refX="0"
       id="Arrow1Lstart"
       style="overflow:visible"
       inkscape:isstock="true"
       inkscape:collect="always">
      <path
         id="path939"
         d="M 0,0 5,-5 -12.5,0 5,5 Z"
         style="fill:#ffffff;fill-opacity:1;fill-rule:evenodd;stroke:#ffffff;stroke-width:1.00000003pt;stroke-opacity:1"
         transform="matrix(0.8,0,0,0.8,10,0)"
         inkscape:connector-curvature="0" />
    </marker>
  </defs>
  <sodipodi:namedview
     id="base"
     pagecolor="#ffffff"
     bordercolor="#666666"
     borderopacity="1.0"
     inkscape:pageopacity="0.0"
     inkscape:pageshadow="2"
     inkscape:zoom="0.98994949"
     inkscape:cx="425.06851"
     inkscape:cy="368.73311"
     inkscape:document-units="mm"
     inkscape:current-layer="layer1"
     showgrid="false"
     inkscape:window-width="1920"
     inkscape:window-height="999"
     inkscape:window-x="0"
     inkscape:window-y="0"
     inkscape:window-maximized="1"
     inkscape:pagecheckerboard="true"
     fit-margin-top="0"
     fit-margin-left="0"
     fit-margin-right="0"
     fit-margin-bottom="0" />
  <metadata
     id="metadata5">
    <rdf:RDF>
      <cc:Work
         rdf:about="">
        <dc:format>image/svg+xml</dc:format>
        <dc:type
           rdf:resource="http://purl.org/dc/dcmitype/StillImage" />
        <dc:title />
      </cc:Work>
    </rdf:RDF>
  </metadata>
  <g
     inkscape:label="control-plane-fig[1-]"
     inkscape:groupmode="layer"
     id="layer1"
     style="display:inline"
     transform="translate(23.561326,24.069659)"
     sodipodi:insensitive="true">
    <g
       id="g847"
       transform="translate(7.4298229,-24.321527)">
      <path
         id="path2"
         d="m 50.591992,75.433442 q 0,-1.83655 -1.299448,-3.136 -1.299445,-1.29944 -3.135998,-1.29944 -1.83655,0 -3.135994,1.29944 -1.299448,1.29945 -1.299448,3.136 0,1.83655 1.299448,3.136 1.299444,1.29944 3.135994,1.29944 1.836553,0 3.135998,-1.29944 1.299448,-1.29945 1.299448,-3.136 z m 13.306329,8.87088 q 0,-0.90094 -0.65839,-1.55933 -0.65838,-0.65839 -1.55933,-0.65839 -0.90095,0 -1.55934,0.65839 -0.658386,0.65839 -0.658386,1.55933 0,0.91828 0.649726,1.568 0.64972,0.64973 1.568,0.64973 0.91827,0 1.568,-0.64973 0.64972,-0.64972 0.64972,-1.568 z m 0,-17.74176 q 0,-0.90095 -0.65839,-1.55934 -0.65838,-0.65839 -1.55933,-0.65839 -0.90095,0 -1.55934,0.65839 -0.658386,0.65839 -0.658386,1.55934 0,0.91827 0.649726,1.56799 0.64972,0.64973 1.568,0.64973 0.91827,0 1.568,-0.64973 0.64972,-0.64972 0.64972,-1.56799 z m -6.653166,7.29422 v 3.2053 q 0,0.17326 -0.121282,0.33785 -0.121282,0.1646 -0.277215,0.18193 l -2.685521,0.41582 q -0.190586,0.60641 -0.554431,1.31677 0.58908,0.83165 1.559335,1.99249 0.121281,0.19058 0.121281,0.34652 0,0.20791 -0.121281,0.32919 -0.398498,0.51978 -1.42939,1.55067 -1.030896,1.03089 -1.360088,1.03089 -0.190586,0 -0.363846,-0.12128 l -1.992482,-1.55933 q -0.641063,0.32919 -1.334098,0.5371 -0.190586,1.87121 -0.398498,2.68552 -0.12128,0.41583 -0.519778,0.41583 h -3.222626 q -0.190586,0 -0.346519,-0.12995 -0.155933,-0.12994 -0.17326,-0.3032 l -0.398498,-2.65087 q -0.589083,-0.17326 -1.299444,-0.53711 l -2.044462,1.54201 q -0.121284,0.12128 -0.346519,0.12128 -0.190586,0 -0.363845,-0.1386 -2.494939,-2.30435 -2.494939,-2.77215 0,-0.15594 0.121284,-0.3292 0.173256,-0.24256 0.710361,-0.91827 0.537105,-0.67572 0.814322,-1.05689 -0.398498,-0.76234 -0.60641,-1.42073 l -2.633542,-0.41582 q -0.173259,-0.0173 -0.294543,-0.16459 -0.121281,-0.14727 -0.121281,-0.33786 v -3.2053 q 0,-0.17326 0.121281,-0.33785 0.121284,-0.1646 0.277217,-0.18193 l 2.685521,-0.41582 q 0.190586,-0.60641 0.554431,-1.31677 -0.589084,-0.83165 -1.559336,-1.99249 -0.12128,-0.19058 -0.12128,-0.34652 0,-0.2079 0.12128,-0.34652 0.381172,-0.51977 1.420729,-1.542 1.039557,-1.02224 1.36875,-1.02224 0.190586,0 0.363845,0.12129 l 1.992483,1.55933 q 0.58908,-0.31187 1.334097,-0.55443 0.190586,-1.8712 0.398498,-2.66819 0.121281,-0.41583 0.519779,-0.41583 h 3.222626 q 0.190586,0 0.346519,0.12995 0.155933,0.12994 0.173259,0.3032 l 0.398498,2.65087 q 0.58908,0.17326 1.299445,0.53711 l 2.044462,-1.54201 q 0.138606,-0.12129 0.346519,-0.12129 0.190585,0 0.363845,0.13862 2.494935,2.30434 2.494935,2.77214 0,0.13861 -0.121281,0.3292 -0.207912,0.27721 -0.72769,0.9356 -0.519779,0.65838 -0.779666,1.03956 0.398494,0.83164 0.58908,1.42073 l 2.633546,0.39849 q 0.173259,0.0347 0.294541,0.18192 0.121282,0.14727 0.121282,0.33786 z m 11.088607,9.23473 v 2.42563 q 0,0.27722 -2.58157,0.53711 -0.20791,0.4678 -0.51978,0.90095 0.88363,1.95783 0.88363,2.39098 0,0.0693 -0.0693,0.12128 -2.113771,1.23014 -2.148421,1.23014 -0.13861,0 -0.79699,-0.81432 -0.65839,-0.81432 -0.90095,-1.17816 -0.34652,0.0347 -0.51978,0.0347 -0.17326,0 -0.51978,-0.0347 -0.24256,0.36384 -0.90095,1.17816 -0.658387,0.81432 -0.796994,0.81432 -0.03465,0 -2.148417,-1.23014 -0.0693,-0.052 -0.0693,-0.12128 0,-0.43315 0.883623,-2.39098 -0.311867,-0.43315 -0.519778,-0.90095 -2.581566,-0.25989 -2.581566,-0.53711 v -2.42563 q 0,-0.27722 2.581566,-0.53711 0.225237,-0.50245 0.519778,-0.90094 -0.883623,-1.95784 -0.883623,-2.39099 0,-0.0693 0.0693,-0.12128 0.0693,-0.0347 0.606409,-0.34652 0.537104,-0.31186 1.02223,-0.58908 0.485127,-0.27722 0.519778,-0.27722 0.138607,0 0.796994,0.80566 0.65839,0.80566 0.90095,1.1695 0.34652,-0.0347 0.51978,-0.0347 0.17326,0 0.51978,0.0347 0.88362,-1.23014 1.59398,-1.9405 l 0.10396,-0.0347 q 0.0693,0 2.148421,1.21282 0.0693,0.052 0.0693,0.12128 0,0.43315 -0.88363,2.39098 0.29455,0.3985 0.51978,0.90095 2.58157,0.25989 2.58157,0.5371 z m 0,-17.74177 v 2.42563 q 0,0.27722 -2.58157,0.53711 -0.20791,0.4678 -0.51978,0.90094 0.88363,1.95784 0.88363,2.39098 0,0.0693 -0.0693,0.12129 -2.113771,1.23014 -2.148421,1.23014 -0.13861,0 -0.79699,-0.81432 -0.65839,-0.81432 -0.90095,-1.17816 -0.34652,0.0347 -0.51978,0.0347 -0.17326,0 -0.51978,-0.0347 -0.24256,0.36384 -0.90095,1.17816 -0.658387,0.81432 -0.796994,0.81432 -0.03465,0 -2.148417,-1.23014 -0.0693,-0.052 -0.0693,-0.12129 0,-0.43314 0.883623,-2.39098 -0.311867,-0.43314 -0.519778,-0.90094 -2.581566,-0.25989 -2.581566,-0.53711 v -2.42563 q 0,-0.27721 2.581566,-0.53711 0.225237,-0.50245 0.519778,-0.90095 -0.883623,-1.95783 -0.883623,-2.39098 0,-0.0693 0.0693,-0.12128 0.0693,-0.0347 0.606409,-0.34652 0.537104,-0.31186 1.02223,-0.58908 0.485127,-0.27721 0.519778,-0.27721 0.138607,0 0.796994,0.80565 0.65839,0.80566 0.90095,1.1695 0.34652,-0.0347 0.51978,-0.0347 0.17326,0 0.51978,0.0347 0.88362,-1.23014 1.59398,-1.9405 l 0.10396,-0.0347 q 0.0693,0 2.148421,1.21282 0.0693,0.052 0.0693,0.12128 0,0.43315 -0.88363,2.39098 0.29455,0.3985 0.51978,0.90095 2.58157,0.25989 2.58157,0.5371 z"
         style="fill:#2196f3;stroke-width:0.01732595"
         inkscape:connector-curvature="0" />
      <text
         id="text823"
         y="98.285851"
         x="26.464943"
         style="font-style:normal;font-weight:normal;font-size:10.58333302px;line-height:1.25;font-family:sans-serif;letter-spacing:0px;word-spacing:0px;fill:#000000;fill-opacity:1;stroke:none;stroke-width:0.26458332"
         xml:space="preserve"><tspan
           style="fill:#ffffff;stroke-width:0.26458332"
           y="98.285851"
           x="26.464943"
           id="tspan821"
           sodipodi:role="line">API server</tspan></text>
    </g>
    <g
       transform="translate(14.312946,24.797351)"
       id="g898">
      <text
         id="text823-7"
         y="98.740936"
         x="26.750679"
         style="font-style:normal;font-weight:normal;font-size:10.58333302px;line-height:1.25;font-family:sans-serif;letter-spacing:0px;word-spacing:0px;fill:#000000;fill-opacity:1;stroke:none;stroke-width:0.26458332"
         xml:space="preserve"><tspan
           style="fill:#ffffff;stroke-width:0.26458332"
           y="98.740936"
           x="26.750679"
           id="tspan821-5"
           sodipodi:role="line">Scheduler</tspan></text>
      <path
         inkscape:connector-curvature="0"
         style="fill:#2196f3;stroke-width:0.01732595"
         d="m 50.591992,75.433442 q 0,-1.83655 -1.299448,-3.136 -1.299445,-1.29944 -3.135998,-1.29944 -1.83655,0 -3.135994,1.29944 -1.299448,1.29945 -1.299448,3.136 0,1.83655 1.299448,3.136 1.299444,1.29944 3.135994,1.29944 1.836553,0 3.135998,-1.29944 1.299448,-1.29945 1.299448,-3.136 z m 13.306329,8.87088 q 0,-0.90094 -0.65839,-1.55933 -0.65838,-0.65839 -1.55933,-0.65839 -0.90095,0 -1.55934,0.65839 -0.658386,0.65839 -0.658386,1.55933 0,0.91828 0.649726,1.568 0.64972,0.64973 1.568,0.64973 0.91827,0 1.568,-0.64973 0.64972,-0.64972 0.64972,-1.568 z m 0,-17.74176 q 0,-0.90095 -0.65839,-1.55934 -0.65838,-0.65839 -1.55933,-0.65839 -0.90095,0 -1.55934,0.65839 -0.658386,0.65839 -0.658386,1.55934 0,0.91827 0.649726,1.56799 0.64972,0.64973 1.568,0.64973 0.91827,0 1.568,-0.64973 0.64972,-0.64972 0.64972,-1.56799 z m -6.653166,7.29422 v 3.2053 q 0,0.17326 -0.121282,0.33785 -0.121282,0.1646 -0.277215,0.18193 l -2.685521,0.41582 q -0.190586,0.60641 -0.554431,1.31677 0.58908,0.83165 1.559335,1.99249 0.121281,0.19058 0.121281,0.34652 0,0.20791 -0.121281,0.32919 -0.398498,0.51978 -1.42939,1.55067 -1.030896,1.03089 -1.360088,1.03089 -0.190586,0 -0.363846,-0.12128 l -1.992482,-1.55933 q -0.641063,0.32919 -1.334098,0.5371 -0.190586,1.87121 -0.398498,2.68552 -0.12128,0.41583 -0.519778,0.41583 h -3.222626 q -0.190586,0 -0.346519,-0.12995 -0.155933,-0.12994 -0.17326,-0.3032 l -0.398498,-2.65087 q -0.589083,-0.17326 -1.299444,-0.53711 l -2.044462,1.54201 q -0.121284,0.12128 -0.346519,0.12128 -0.190586,0 -0.363845,-0.1386 -2.494939,-2.30435 -2.494939,-2.77215 0,-0.15594 0.121284,-0.3292 0.173256,-0.24256 0.710361,-0.91827 0.537105,-0.67572 0.814322,-1.05689 -0.398498,-0.76234 -0.60641,-1.42073 l -2.633542,-0.41582 q -0.173259,-0.0173 -0.294543,-0.16459 -0.121281,-0.14727 -0.121281,-0.33786 v -3.2053 q 0,-0.17326 0.121281,-0.33785 0.121284,-0.1646 0.277217,-0.18193 l 2.685521,-0.41582 q 0.190586,-0.60641 0.554431,-1.31677 -0.589084,-0.83165 -1.559336,-1.99249 -0.12128,-0.19058 -0.12128,-0.34652 0,-0.2079 0.12128,-0.34652 0.381172,-0.51977 1.420729,-1.542 1.039557,-1.02224 1.36875,-1.02224 0.190586,0 0.363845,0.12129 l 1.992483,1.55933 q 0.58908,-0.31187 1.334097,-0.55443 0.190586,-1.8712 0.398498,-2.66819 0.121281,-0.41583 0.519779,-0.41583 h 3.222626 q 0.190586,0 0.346519,0.12995 0.155933,0.12994 0.173259,0.3032 l 0.398498,2.65087 q 0.58908,0.17326 1.299445,0.53711 l 2.044462,-1.54201 q 0.138606,-0.12129 0.346519,-0.12129 0.190585,0 0.363845,0.13862 2.494935,2.30434 2.494935,2.77214 0,0.13861 -0.121281,0.3292 -0.207912,0.27721 -0.72769,0.9356 -0.519779,0.65838 -0.779666,1.03956 0.398494,0.83164 0.58908,1.42073 l 2.633546,0.39849 q 0.173259,0.0347 0.294541,0.18192 0.121282,0.14727 0.121282,0.33786 z m 11.088607,9.23473 v 2.42563 q 0,0.27722 -2.58157,0.53711 -0.20791,0.4678 -0.51978,0.90095 0.88363,1.95783 0.88363,2.39098 0,0.0693 -0.0693,0.12128 -2.113771,1.23014 -2.148421,1.23014 -0.13861,0 -0.79699,-0.81432 -0.65839,-0.81432 -0.90095,-1.17816 -0.34652,0.0347 -0.51978,0.0347 -0.17326,0 -0.51978,-0.0347 -0.24256,0.36384 -0.90095,1.17816 -0.658387,0.81432 -0.796994,0.81432 -0.03465,0 -2.148417,-1.23014 -0.0693,-0.052 -0.0693,-0.12128 0,-0.43315 0.883623,-2.39098 -0.311867,-0.43315 -0.519778,-0.90095 -2.581566,-0.25989 -2.581566,-0.53711 v -2.42563 q 0,-0.27722 2.581566,-0.53711 0.225237,-0.50245 0.519778,-0.90094 -0.883623,-1.95784 -0.883623,-2.39099 0,-0.0693 0.0693,-0.12128 0.0693,-0.0347 0.606409,-0.34652 0.537104,-0.31186 1.02223,-0.58908 0.485127,-0.27722 0.519778,-0.27722 0.138607,0 0.796994,0.80566 0.65839,0.80566 0.90095,1.1695 0.34652,-0.0347 0.51978,-0.0347 0.17326,0 0.51978,0.0347 0.88362,-1.23014 1.59398,-1.9405 l 0.10396,-0.0347 q 0.0693,0 2.148421,1.21282 0.0693,0.052 0.0693,0.12128 0,0.43315 -0.88363,2.39098 0.29455,0.3985 0.51978,0.90095 2.58157,0.25989 2.58157,0.5371 z m 0,-17.74177 v 2.42563 q 0,0.27722 -2.58157,0.53711 -0.20791,0.4678 -0.51978,0.90094 0.88363,1.95784 0.88363,2.39098 0,0.0693 -0.0693,0.12129 -2.113771,1.23014 -2.148421,1.23014 -0.13861,0 -0.79699,-0.81432 -0.65839,-0.81432 -0.90095,-1.17816 -0.34652,0.0347 -0.51978,0.0347 -0.17326,0 -0.51978,-0.0347 -0.24256,0.36384 -0.90095,1.17816 -0.658387,0.81432 -0.796994,0.81432 -0.03465,0 -2.148417,-1.23014 -0.0693,-0.052 -0.0693,-0.12129 0,-0.43314 0.883623,-2.39098 -0.311867,-0.43314 -0.519778,-0.90094 -2.581566,-0.25989 -2.581566,-0.53711 v -2.42563 q 0,-0.27721 2.581566,-0.53711 0.225237,-0.50245 0.519778,-0.90095 -0.883623,-1.95783 -0.883623,-2.39098 0,-0.0693 0.0693,-0.12128 0.0693,-0.0347 0.606409,-0.34652 0.537104,-0.31186 1.02223,-0.58908 0.485127,-0.27721 0.519778,-0.27721 0.138607,0 0.796994,0.80565 0.65839,0.80566 0.90095,1.1695 0.34652,-0.0347 0.51978,-0.0347 0.17326,0 0.51978,0.0347 0.88362,-1.23014 1.59398,-1.9405 l 0.10396,-0.0347 q 0.0693,0 2.148421,1.21282 0.0693,0.052 0.0693,0.12128 0,0.43315 -0.88363,2.39098 0.29455,0.3985 0.51978,0.90095 2.58157,0.25989 2.58157,0.5371 z"
         id="path873" />
    </g>
    <g
       transform="translate(62.630001,24.599461)"
       id="g890">
      <g
         id="g933">
        <text
           id="text886"
           y="98.740936"
           x="41.170452"
           style="font-style:normal;font-weight:normal;font-size:10.58333302px;line-height:1.25;font-family:sans-serif;letter-spacing:0px;word-spacing:0px;fill:#000000;fill-opacity:1;stroke:none;stroke-width:0.26458332"
           xml:space="preserve"><tspan
             style="fill:#ffffff;stroke-width:0.26458332"
             y="98.740936"
             x="41.170452"
             id="tspan884"
             sodipodi:role="line">etcd</tspan></text>
        <path
           id="path2-3"
           d="m 51.700853,60.582343 c -7.39497,0 -13.384561,2.9948 -13.384561,6.69228 0,3.69749 5.989591,6.69228 13.384561,6.69228 7.394968,0 13.384559,-2.99479 13.384559,-6.69228 0,-3.69748 -5.989591,-6.69228 -13.384559,-6.69228 m -13.384561,10.03842 v 5.01921 c 0,3.69749 5.989591,6.69228 13.384561,6.69228 7.394968,0 13.384559,-2.99479 13.384559,-6.69228 v -5.01921 c 0,3.69749 -5.989591,6.69228 -13.384559,6.69228 -7.39497,0 -13.384561,-2.99479 -13.384561,-6.69228 m 0,8.36535 v 5.01922 c 0,3.69748 5.989591,6.69227 13.384561,6.69227 7.394968,0 13.384559,-2.99479 13.384559,-6.69227 v -5.01922 c 0,3.69749 -5.989591,6.69228 -13.384559,6.69228 -7.39497,0 -13.384561,-2.99479 -13.384561,-6.69228 z"
           style="fill:#2196f3;stroke-width:1.67306995"
           inkscape:connector-curvature="0" />
      </g>
    </g>
    <g
       id="g914"
       transform="translate(-2.7918791,56.547352)">
      <g
         id="g922"
         transform="translate(-42.333335,-31.750001)">
        <text
           xml:space="preserve"
           style="font-style:normal;font-weight:normal;font-size:10.58333302px;line-height:1.25;font-family:sans-serif;letter-spacing:0px;word-spacing:0px;fill:#000000;fill-opacity:1;stroke:none;stroke-width:0.26458332"
           x="51.457424"
           y="98.740936"
           id="text910"><tspan
             sodipodi:role="line"
             id="tspan908"
             x="51.457424"
             y="98.740936"
             style="text-align:center;text-anchor:middle;fill:#ffffff;stroke-width:0.26458332">Controller</tspan><tspan
             id="tspan916"
             sodipodi:role="line"
             x="51.457424"
             y="111.9701"
             style="text-align:center;text-anchor:middle;fill:#ffffff;stroke-width:0.26458332">Manager</tspan></text>
        <path
           id="path912"
           d="m 50.591992,75.433442 q 0,-1.83655 -1.299448,-3.136 -1.299445,-1.29944 -3.135998,-1.29944 -1.83655,0 -3.135994,1.29944 -1.299448,1.29945 -1.299448,3.136 0,1.83655 1.299448,3.136 1.299444,1.29944 3.135994,1.29944 1.836553,0 3.135998,-1.29944 1.299448,-1.29945 1.299448,-3.136 z m 13.306329,8.87088 q 0,-0.90094 -0.65839,-1.55933 -0.65838,-0.65839 -1.55933,-0.65839 -0.90095,0 -1.55934,0.65839 -0.658386,0.65839 -0.658386,1.55933 0,0.91828 0.649726,1.568 0.64972,0.64973 1.568,0.64973 0.91827,0 1.568,-0.64973 0.64972,-0.64972 0.64972,-1.568 z m 0,-17.74176 q 0,-0.90095 -0.65839,-1.55934 -0.65838,-0.65839 -1.55933,-0.65839 -0.90095,0 -1.55934,0.65839 -0.658386,0.65839 -0.658386,1.55934 0,0.91827 0.649726,1.56799 0.64972,0.64973 1.568,0.64973 0.91827,0 1.568,-0.64973 0.64972,-0.64972 0.64972,-1.56799 z m -6.653166,7.29422 v 3.2053 q 0,0.17326 -0.121282,0.33785 -0.121282,0.1646 -0.277215,0.18193 l -2.685521,0.41582 q -0.190586,0.60641 -0.554431,1.31677 0.58908,0.83165 1.559335,1.99249 0.121281,0.19058 0.121281,0.34652 0,0.20791 -0.121281,0.32919 -0.398498,0.51978 -1.42939,1.55067 -1.030896,1.03089 -1.360088,1.03089 -0.190586,0 -0.363846,-0.12128 l -1.992482,-1.55933 q -0.641063,0.32919 -1.334098,0.5371 -0.190586,1.87121 -0.398498,2.68552 -0.12128,0.41583 -0.519778,0.41583 h -3.222626 q -0.190586,0 -0.346519,-0.12995 -0.155933,-0.12994 -0.17326,-0.3032 l -0.398498,-2.65087 q -0.589083,-0.17326 -1.299444,-0.53711 l -2.044462,1.54201 q -0.121284,0.12128 -0.346519,0.12128 -0.190586,0 -0.363845,-0.1386 -2.494939,-2.30435 -2.494939,-2.77215 0,-0.15594 0.121284,-0.3292 0.173256,-0.24256 0.710361,-0.91827 0.537105,-0.67572 0.814322,-1.05689 -0.398498,-0.76234 -0.60641,-1.42073 l -2.633542,-0.41582 q -0.173259,-0.0173 -0.294543,-0.16459 -0.121281,-0.14727 -0.121281,-0.33786 v -3.2053 q 0,-0.17326 0.121281,-0.33785 0.121284,-0.1646 0.277217,-0.18193 l 2.685521,-0.41582 q 0.190586,-0.60641 0.554431,-1.31677 -0.589084,-0.83165 -1.559336,-1.99249 -0.12128,-0.19058 -0.12128,-0.34652 0,-0.2079 0.12128,-0.34652 0.381172,-0.51977 1.420729,-1.542 1.039557,-1.02224 1.36875,-1.02224 0.190586,0 0.363845,0.12129 l 1.992483,1.55933 q 0.58908,-0.31187 1.334097,-0.55443 0.190586,-1.8712 0.398498,-2.66819 0.121281,-0.41583 0.519779,-0.41583 h 3.222626 q 0.190586,0 0.346519,0.12995 0.155933,0.12994 0.173259,0.3032 l 0.398498,2.65087 q 0.58908,0.17326 1.299445,0.53711 l 2.044462,-1.54201 q 0.138606,-0.12129 0.346519,-0.12129 0.190585,0 0.363845,0.13862 2.494935,2.30434 2.494935,2.77214 0,0.13861 -0.121281,0.3292 -0.207912,0.27721 -0.72769,0.9356 -0.519779,0.65838 -0.779666,1.03956 0.398494,0.83164 0.58908,1.42073 l 2.633546,0.39849 q 0.173259,0.0347 0.294541,0.18192 0.121282,0.14727 0.121282,0.33786 z m 11.088607,9.23473 v 2.42563 q 0,0.27722 -2.58157,0.53711 -0.20791,0.4678 -0.51978,0.90095 0.88363,1.95783 0.88363,2.39098 0,0.0693 -0.0693,0.12128 -2.113771,1.23014 -2.148421,1.23014 -0.13861,0 -0.79699,-0.81432 -0.65839,-0.81432 -0.90095,-1.17816 -0.34652,0.0347 -0.51978,0.0347 -0.17326,0 -0.51978,-0.0347 -0.24256,0.36384 -0.90095,1.17816 -0.658387,0.81432 -0.796994,0.81432 -0.03465,0 -2.148417,-1.23014 -0.0693,-0.052 -0.0693,-0.12128 0,-0.43315 0.883623,-2.39098 -0.311867,-0.43315 -0.519778,-0.90095 -2.581566,-0.25989 -2.581566,-0.53711 v -2.42563 q 0,-0.27722 2.581566,-0.53711 0.225237,-0.50245 0.519778,-0.90094 -0.883623,-1.95784 -0.883623,-2.39099 0,-0.0693 0.0693,-0.12128 0.0693,-0.0347 0.606409,-0.34652 0.537104,-0.31186 1.02223,-0.58908 0.485127,-0.27722 0.519778,-0.27722 0.138607,0 0.796994,0.80566 0.65839,0.80566 0.90095,1.1695 0.34652,-0.0347 0.51978,-0.0347 0.17326,0 0.51978,0.0347 0.88362,-1.23014 1.59398,-1.9405 l 0.10396,-0.0347 q 0.0693,0 2.148421,1.21282 0.0693,0.052 0.0693,0.12128 0,0.43315 -0.88363,2.39098 0.29455,0.3985 0.51978,0.90095 2.58157,0.25989 2.58157,0.5371 z m 0,-17.74177 v 2.42563 q 0,0.27722 -2.58157,0.53711 -0.20791,0.4678 -0.51978,0.90094 0.88363,1.95784 0.88363,2.39098 0,0.0693 -0.0693,0.12129 -2.113771,1.23014 -2.148421,1.23014 -0.13861,0 -0.79699,-0.81432 -0.65839,-0.81432 -0.90095,-1.17816 -0.34652,0.0347 -0.51978,0.0347 -0.17326,0 -0.51978,-0.0347 -0.24256,0.36384 -0.90095,1.17816 -0.658387,0.81432 -0.796994,0.81432 -0.03465,0 -2.148417,-1.23014 -0.0693,-0.052 -0.0693,-0.12129 0,-0.43314 0.883623,-2.39098 -0.311867,-0.43314 -0.519778,-0.90094 -2.581566,-0.25989 -2.581566,-0.53711 v -2.42563 q 0,-0.27721 2.581566,-0.53711 0.225237,-0.50245 0.519778,-0.90095 -0.883623,-1.95783 -0.883623,-2.39098 0,-0.0693 0.0693,-0.12128 0.0693,-0.0347 0.606409,-0.34652 0.537104,-0.31186 1.02223,-0.58908 0.485127,-0.27721 0.519778,-0.27721 0.138607,0 0.796994,0.80565 0.65839,0.80566 0.90095,1.1695 0.34652,-0.0347 0.51978,-0.0347 0.17326,0 0.51978,0.0347 0.88362,-1.23014 1.59398,-1.9405 l 0.10396,-0.0347 q 0.0693,0 2.148421,1.21282 0.0693,0.052 0.0693,0.12128 0,0.43315 -0.88363,2.39098 0.29455,0.3985 0.51978,0.90095 2.58157,0.25989 2.58157,0.5371 z"
           style="fill:#2196f3;stroke-width:0.01732595"
           inkscape:connector-curvature="0" />
      </g>
    </g>
    <rect
       style="fill:none;fill-opacity:1;stroke:#2196f3;stroke-width:0.65655386;stroke-miterlimit:4;stroke-dasharray:none;stroke-opacity:1"
       id="rect935"
       width="157.24821"
       height="109.21195"
       x="-23.233049"
       y="30.572535" />
    <path
       style="fill:none;stroke:#ffffff;stroke-width:0.26458332px;stroke-linecap:butt;stroke-linejoin:miter;stroke-opacity:1;marker-start:url(#Arrow1Lstart);marker-end:url(#Arrow1Lend)"
       d="M 55.37351,75.883928 20.921528,86.196732"
       id="path937"
       inkscape:connector-curvature="0" />
    <path
       inkscape:connector-curvature="0"
       id="path3751"
       d="M 57.263391,75.69494 66.34299,91.221303"
       style="fill:none;stroke:#ffffff;stroke-width:0.26458332px;stroke-linecap:butt;stroke-linejoin:miter;stroke-opacity:1;marker-start:url(#marker3755);marker-end:url(#marker3783)"
       sodipodi:nodetypes="cc" />
    <text
       xml:space="preserve"
       style="font-style:normal;font-weight:normal;font-size:10.58333302px;line-height:1.25;font-family:sans-serif;letter-spacing:0px;word-spacing:0px;fill:#2196f3;fill-opacity:1;stroke:none;stroke-width:0.26458332"
       x="-24.206909"
       y="27.704258"
       id="text5473"><tspan
         sodipodi:role="line"
         id="tspan5471"
         x="-24.206909"
         y="27.704258"
         style="fill:#2196f3;stroke-width:0.26458332">Control plane</tspan></text>
  </g>
  <g
     inkscape:groupmode="layer"
     id="layer2"
     inkscape:label="nodes-fig[2-]"
     sodipodi:insensitive="true"
     style="display:inline"
     transform="translate(23.561326,24.069659)">
    <rect
       style="fill:none;fill-opacity:1;stroke:#00bcd4;stroke-width:0.4269934;stroke-miterlimit:4;stroke-dasharray:none;stroke-opacity:1"
       id="rect935-5"
       width="66.338966"
       height="109.49359"
       x="140.19438"
       y="30.421232" />
    <g
       id="g5563"
       transform="translate(-19.471095,38.628423)">
      <text
         id="text823-7-2"
         y="35.567776"
         x="173.90668"
         style="font-style:normal;font-weight:normal;font-size:10.58333302px;line-height:1.25;font-family:sans-serif;letter-spacing:0px;word-spacing:0px;fill:#000000;fill-opacity:1;stroke:none;stroke-width:0.26458332"
         xml:space="preserve"><tspan
           style="fill:#ffffff;stroke-width:0.26458332"
           y="35.567776"
           x="173.90668"
           id="tspan821-5-9"
           sodipodi:role="line">kubelet</tspan></text>
      <path
         inkscape:connector-curvature="0"
         style="fill:#00bcd4;stroke:#00bcd4;stroke-width:0.01732595"
         d="m 191.72608,12.26028 q 0,-1.83655 -1.29945,-3.136 -1.29944,-1.29944 -3.13599,-1.29944 -1.83655,0 -3.136,1.29944 -1.29945,1.29945 -1.29945,3.136 0,1.83655 1.29945,3.136 1.29945,1.29944 3.136,1.29944 1.83655,0 3.13599,-1.29944 1.29945,-1.29945 1.29945,-3.136 z m 13.30633,8.87088 q 0,-0.90094 -0.65839,-1.55933 -0.65838,-0.65839 -1.55933,-0.65839 -0.90095,0 -1.55934,0.65839 -0.65839,0.65839 -0.65839,1.55933 0,0.91828 0.64973,1.568 0.64972,0.64973 1.568,0.64973 0.91827,0 1.568,-0.64973 0.64972,-0.64972 0.64972,-1.568 z m 0,-17.74176 q 0,-0.90095 -0.65839,-1.55934 -0.65838,-0.65839 -1.55933,-0.65839 -0.90095,0 -1.55934,0.65839 -0.65839,0.65839 -0.65839,1.55934 0,0.91827 0.64973,1.56799 0.64972,0.64973 1.568,0.64973 0.91827,0 1.568,-0.64973 0.64972,-0.64972 0.64972,-1.56799 z m -6.65317,7.29422 v 3.2053 q 0,0.17326 -0.12128,0.33785 -0.12128,0.1646 -0.27721,0.18193 l -2.68552,0.41582 q -0.19059,0.60641 -0.55443,1.31677 0.58908,0.83165 1.55933,1.99249 0.12128,0.19058 0.12128,0.34652 0,0.20791 -0.12128,0.32919 -0.3985,0.51978 -1.42939,1.55067 -1.0309,1.03089 -1.36009,1.03089 -0.19058,0 -0.36384,-0.12128 l -1.99249,-1.55933 q -0.64106,0.32919 -1.33409,0.5371 -0.19059,1.87121 -0.3985,2.68552 -0.12128,0.41583 -0.51978,0.41583 h -3.22263 q -0.19058,0 -0.34651,-0.12995 -0.15594,-0.12994 -0.17326,-0.3032 l -0.3985,-2.65087 q -0.58909,-0.17326 -1.29945,-0.53711 l -2.04446,1.54201 q -0.12128,0.12128 -0.34652,0.12128 -0.19058,0 -0.36384,-0.1386 -2.49494,-2.30435 -2.49494,-2.77215 0,-0.15594 0.12128,-0.3292 0.17326,-0.24256 0.71036,-0.91827 0.53711,-0.67572 0.81433,-1.05689 -0.3985,-0.76234 -0.60641,-1.42073 l -2.63355,-0.41582 q -0.17326,-0.0173 -0.29454,-0.16459 -0.12128,-0.14727 -0.12128,-0.33786 v -3.2053 q 0,-0.17326 0.12128,-0.33785 0.12128,-0.1646 0.27722,-0.18193 l 2.68552,-0.41582 q 0.19058,-0.60641 0.55443,-1.31677 -0.58908,-0.83165 -1.55934,-1.99249 -0.12128,-0.19058 -0.12128,-0.34652 0,-0.2079 0.12128,-0.34652 0.38118,-0.51977 1.42073,-1.542 1.03956,-1.02224 1.36875,-1.02224 0.19059,0 0.36385,0.12129 l 1.99248,1.55933 q 0.58908,-0.31187 1.3341,-0.55443 0.19058,-1.8712 0.3985,-2.66819 0.12128,-0.41583 0.51977,-0.41583 h 3.22263 q 0.19059,0 0.34652,0.12995 0.15593,0.12994 0.17326,0.3032 l 0.3985,2.65087 q 0.58908,0.17326 1.29944,0.53711 l 2.04446,-1.54201 q 0.13861,-0.12129 0.34652,-0.12129 0.19059,0 0.36385,0.13862 2.49493,2.30434 2.49493,2.77214 0,0.13861 -0.12128,0.3292 -0.20791,0.27721 -0.72769,0.9356 -0.51978,0.65838 -0.77966,1.03956 0.39849,0.83164 0.58908,1.42073 l 2.63354,0.39849 q 0.17326,0.0347 0.29454,0.18192 0.12128,0.14727 0.12128,0.33786 z m 11.08861,9.23473 v 2.42563 q 0,0.27722 -2.58157,0.53711 -0.20791,0.4678 -0.51978,0.90095 0.88363,1.95783 0.88363,2.39098 0,0.0693 -0.0693,0.12128 -2.11377,1.23014 -2.14842,1.23014 -0.13861,0 -0.79699,-0.81432 -0.65839,-0.81432 -0.90095,-1.17816 -0.34652,0.0347 -0.51978,0.0347 -0.17326,0 -0.51978,-0.0347 -0.24256,0.36384 -0.90095,1.17816 -0.65839,0.81432 -0.79699,0.81432 -0.0346,0 -2.14842,-1.23014 -0.0693,-0.052 -0.0693,-0.12128 0,-0.43315 0.88362,-2.39098 -0.31186,-0.43315 -0.51978,-0.90095 -2.58156,-0.25989 -2.58156,-0.53711 v -2.42563 q 0,-0.27722 2.58156,-0.53711 0.22524,-0.50245 0.51978,-0.90094 -0.88362,-1.95784 -0.88362,-2.39099 0,-0.0693 0.0693,-0.12128 0.0693,-0.0347 0.60641,-0.34652 0.5371,-0.31186 1.02223,-0.58908 0.48513,-0.27722 0.51978,-0.27722 0.1386,0 0.79699,0.80566 0.65839,0.80566 0.90095,1.1695 0.34652,-0.0347 0.51978,-0.0347 0.17326,0 0.51978,0.0347 0.88362,-1.23014 1.59398,-1.9405 l 0.10396,-0.0347 q 0.0693,0 2.14842,1.21282 0.0693,0.052 0.0693,0.12128 0,0.43315 -0.88363,2.39098 0.29455,0.3985 0.51978,0.90095 2.58157,0.25989 2.58157,0.5371 z m 0,-17.74177 v 2.42563 q 0,0.27722 -2.58157,0.53711 -0.20791,0.4678 -0.51978,0.90094 0.88363,1.95784 0.88363,2.39098 0,0.0693 -0.0693,0.12129 -2.11377,1.23014 -2.14842,1.23014 -0.13861,0 -0.79699,-0.81432 -0.65839,-0.81432 -0.90095,-1.17816 -0.34652,0.0347 -0.51978,0.0347 -0.17326,0 -0.51978,-0.0347 -0.24256,0.36384 -0.90095,1.17816 -0.65839,0.81432 -0.79699,0.81432 -0.0346,0 -2.14842,-1.23014 -0.0693,-0.052 -0.0693,-0.12129 0,-0.43314 0.88362,-2.39098 -0.31186,-0.43314 -0.51978,-0.90094 -2.58156,-0.25989 -2.58156,-0.53711 V 2.17658 q 0,-0.27721 2.58156,-0.53711 0.22524,-0.50245 0.51978,-0.90095 -0.88362,-1.95783 -0.88362,-2.39098 0,-0.0693 0.0693,-0.12128 0.0693,-0.0347 0.60641,-0.34652 0.5371,-0.31186 1.02223,-0.58908 0.48513,-0.27721 0.51978,-0.27721 0.1386,0 0.79699,0.80565 0.65839,0.80566 0.90095,1.1695 0.34652,-0.0347 0.51978,-0.0347 0.17326,0 0.51978,0.0347 0.88362,-1.23014 1.59398,-1.9405 l 0.10396,-0.0347 q 0.0693,0 2.14842,1.21282 0.0693,0.052 0.0693,0.12128 0,0.43315 -0.88363,2.39098 0.29455,0.3985 0.51978,0.90095 2.58157,0.25989 2.58157,0.5371 z"
         id="path873-1" />
    </g>
    <g
       id="g5568"
       transform="translate(-19.471095,44.424427)">
      <text
         xml:space="preserve"
         style="font-style:normal;font-weight:normal;font-size:10.58333302px;line-height:1.25;font-family:sans-serif;letter-spacing:0px;word-spacing:0px;fill:#000000;fill-opacity:1;stroke:none;stroke-width:0.26458332"
         x="164.41875"
         y="77.901108"
         id="text5522"><tspan
           sodipodi:role="line"
           id="tspan5520"
           x="164.41875"
           y="77.901108"
           style="fill:#ffffff;stroke-width:0.26458332">kube-proxy</tspan></text>
      <path
         id="path5524"
         d="m 191.72608,54.593615 q 0,-1.83655 -1.29945,-3.136 -1.29944,-1.29944 -3.13599,-1.29944 -1.83655,0 -3.136,1.29944 -1.29945,1.29945 -1.29945,3.136 0,1.83655 1.29945,3.136 1.29945,1.29944 3.136,1.29944 1.83655,0 3.13599,-1.29944 1.29945,-1.29945 1.29945,-3.136 z m 13.30633,8.87088 q 0,-0.90094 -0.65839,-1.55933 -0.65838,-0.65839 -1.55933,-0.65839 -0.90095,0 -1.55934,0.65839 -0.65839,0.65839 -0.65839,1.55933 0,0.91828 0.64973,1.568 0.64972,0.64973 1.568,0.64973 0.91827,0 1.568,-0.64973 0.64972,-0.64972 0.64972,-1.568 z m 0,-17.74176 q 0,-0.90095 -0.65839,-1.55934 -0.65838,-0.65839 -1.55933,-0.65839 -0.90095,0 -1.55934,0.65839 -0.65839,0.65839 -0.65839,1.55934 0,0.91827 0.64973,1.56799 0.64972,0.64973 1.568,0.64973 0.91827,0 1.568,-0.64973 0.64972,-0.64972 0.64972,-1.56799 z m -6.65317,7.29422 v 3.2053 q 0,0.17326 -0.12128,0.33785 -0.12128,0.1646 -0.27721,0.18193 l -2.68552,0.41582 q -0.19059,0.60641 -0.55443,1.31677 0.58908,0.83165 1.55933,1.99249 0.12128,0.19058 0.12128,0.34652 0,0.20791 -0.12128,0.32919 -0.3985,0.51978 -1.42939,1.55067 -1.0309,1.03089 -1.36009,1.03089 -0.19058,0 -0.36384,-0.12128 l -1.99249,-1.55933 q -0.64106,0.32919 -1.33409,0.5371 -0.19059,1.87121 -0.3985,2.68552 -0.12128,0.41583 -0.51978,0.41583 h -3.22263 q -0.19058,0 -0.34651,-0.12995 -0.15594,-0.12994 -0.17326,-0.3032 l -0.3985,-2.65087 q -0.58909,-0.17326 -1.29945,-0.53711 l -2.04446,1.54201 q -0.12128,0.12128 -0.34652,0.12128 -0.19058,0 -0.36384,-0.1386 -2.49494,-2.30435 -2.49494,-2.77215 0,-0.15594 0.12128,-0.3292 0.17326,-0.24256 0.71036,-0.91827 0.53711,-0.67572 0.81433,-1.05689 -0.3985,-0.76234 -0.60641,-1.42073 l -2.63355,-0.41582 q -0.17326,-0.0173 -0.29454,-0.16459 -0.12128,-0.14727 -0.12128,-0.33786 v -3.2053 q 0,-0.17326 0.12128,-0.33785 0.12128,-0.1646 0.27722,-0.18193 l 2.68552,-0.41582 q 0.19058,-0.60641 0.55443,-1.31677 -0.58908,-0.83165 -1.55934,-1.99249 -0.12128,-0.19058 -0.12128,-0.34652 0,-0.2079 0.12128,-0.34652 0.38118,-0.51977 1.42073,-1.542 1.03956,-1.02224 1.36875,-1.02224 0.19059,0 0.36385,0.12129 l 1.99248,1.55933 q 0.58908,-0.31187 1.3341,-0.55443 0.19058,-1.8712 0.3985,-2.66819 0.12128,-0.41583 0.51977,-0.41583 h 3.22263 q 0.19059,0 0.34652,0.12995 0.15593,0.12994 0.17326,0.3032 l 0.3985,2.65087 q 0.58908,0.17326 1.29944,0.53711 l 2.04446,-1.54201 q 0.13861,-0.12129 0.34652,-0.12129 0.19059,0 0.36385,0.13862 2.49493,2.30434 2.49493,2.77214 0,0.13861 -0.12128,0.3292 -0.20791,0.27721 -0.72769,0.9356 -0.51978,0.65838 -0.77966,1.03956 0.39849,0.83164 0.58908,1.42073 l 2.63354,0.39849 q 0.17326,0.0347 0.29454,0.18192 0.12128,0.14727 0.12128,0.33786 z m 11.08861,9.23473 v 2.42563 q 0,0.27722 -2.58157,0.53711 -0.20791,0.4678 -0.51978,0.90095 0.88363,1.95783 0.88363,2.39098 0,0.0693 -0.0693,0.12128 -2.11377,1.23014 -2.14842,1.23014 -0.13861,0 -0.79699,-0.81432 -0.65839,-0.81432 -0.90095,-1.17816 -0.34652,0.0347 -0.51978,0.0347 -0.17326,0 -0.51978,-0.0347 -0.24256,0.36384 -0.90095,1.17816 -0.65839,0.81432 -0.79699,0.81432 -0.0346,0 -2.14842,-1.23014 -0.0693,-0.052 -0.0693,-0.12128 0,-0.43315 0.88362,-2.39098 -0.31186,-0.43315 -0.51978,-0.90095 -2.58156,-0.25989 -2.58156,-0.53711 v -2.42563 q 0,-0.27722 2.58156,-0.53711 0.22524,-0.50245 0.51978,-0.90094 -0.88362,-1.95784 -0.88362,-2.39099 0,-0.0693 0.0693,-0.12128 0.0693,-0.0347 0.60641,-0.34652 0.5371,-0.31186 1.02223,-0.58908 0.48513,-0.27722 0.51978,-0.27722 0.1386,0 0.79699,0.80566 0.65839,0.80566 0.90095,1.1695 0.34652,-0.0347 0.51978,-0.0347 0.17326,0 0.51978,0.0347 0.88362,-1.23014 1.59398,-1.9405 l 0.10396,-0.0347 q 0.0693,0 2.14842,1.21282 0.0693,0.052 0.0693,0.12128 0,0.43315 -0.88363,2.39098 0.29455,0.3985 0.51978,0.90095 2.58157,0.25989 2.58157,0.5371 z m 0,-17.74177 v 2.42563 q 0,0.27722 -2.58157,0.53711 -0.20791,0.4678 -0.51978,0.90094 0.88363,1.95784 0.88363,2.39098 0,0.0693 -0.0693,0.12129 -2.11377,1.23014 -2.14842,1.23014 -0.13861,0 -0.79699,-0.81432 -0.65839,-0.81432 -0.90095,-1.17816 -0.34652,0.0347 -0.51978,0.0347 -0.17326,0 -0.51978,-0.0347 -0.24256,0.36384 -0.90095,1.17816 -0.65839,0.81432 -0.79699,0.81432 -0.0346,0 -2.14842,-1.23014 -0.0693,-0.052 -0.0693,-0.12129 0,-0.43314 0.88362,-2.39098 -0.31186,-0.43314 -0.51978,-0.90094 -2.58156,-0.25989 -2.58156,-0.53711 v -2.42563 q 0,-0.27721 2.58156,-0.53711 0.22524,-0.50245 0.51978,-0.90095 -0.88362,-1.95783 -0.88362,-2.39098 0,-0.0693 0.0693,-0.12128 0.0693,-0.0347 0.60641,-0.34652 0.5371,-0.31186 1.02223,-0.58908 0.48513,-0.27721 0.51978,-0.27721 0.1386,0 0.79699,0.80565 0.65839,0.80566 0.90095,1.1695 0.34652,-0.0347 0.51978,-0.0347 0.17326,0 0.51978,0.0347 0.88362,-1.23014 1.59398,-1.9405 l 0.10396,-0.0347 q 0.0693,0 2.14842,1.21282 0.0693,0.052 0.0693,0.12128 0,0.43315 -0.88363,2.39098 0.29455,0.3985 0.51978,0.90095 2.58157,0.25989 2.58157,0.5371 z"
         style="fill:#00bcd4;stroke:#00bcd4;stroke-width:0.01732595"
         inkscape:connector-curvature="0" />
    </g>
    <text
       xml:space="preserve"
       style="font-style:normal;font-weight:normal;font-size:10.58333302px;line-height:1.25;font-family:sans-serif;letter-spacing:0px;word-spacing:0px;fill:#00bcd4;fill-opacity:1;stroke:none;stroke-width:0.26458332"
       x="138.95428"
       y="30.101902"
       id="text5637"><tspan
         sodipodi:role="line"
         id="tspan5635"
         x="138.95428"
         y="30.101902"
         style="fill:#00bcd4;stroke-width:0.26458332">Node 0</tspan></text>
    <rect
       y="30.421232"
       x="219.56946"
       height="109.49359"
       width="66.338966"
       id="rect5639"
       style="fill:none;fill-opacity:1;stroke:#009688;stroke-width:0.4269934;stroke-miterlimit:4;stroke-dasharray:none;stroke-opacity:1" />
    <text
       id="text5643"
       y="74.196198"
       x="233.81059"
       style="font-style:normal;font-weight:normal;font-size:10.58333302px;line-height:1.25;font-family:sans-serif;letter-spacing:0px;word-spacing:0px;fill:#000000;fill-opacity:1;stroke:none;stroke-width:0.26458332"
       xml:space="preserve"><tspan
         style="fill:#ffffff;stroke-width:0.26458332"
         y="74.196198"
         x="233.81059"
         id="tspan5641"
         sodipodi:role="line">kubelet</tspan></text>
    <path
       inkscape:connector-curvature="0"
       style="fill:#009688;stroke:#00bcd4;stroke-width:0.01732595"
       d="m 251.62999,50.888703 q 0,-1.83655 -1.29945,-3.136 -1.29944,-1.29944 -3.13599,-1.29944 -1.83655,0 -3.136,1.29944 -1.29945,1.29945 -1.29945,3.136 0,1.83655 1.29945,3.136 1.29945,1.29944 3.136,1.29944 1.83655,0 3.13599,-1.29944 1.29945,-1.29945 1.29945,-3.136 z m 13.30633,8.87088 q 0,-0.90094 -0.65839,-1.55933 -0.65838,-0.65839 -1.55933,-0.65839 -0.90095,0 -1.55934,0.65839 -0.65839,0.65839 -0.65839,1.55933 0,0.91828 0.64973,1.568 0.64972,0.64973 1.568,0.64973 0.91827,0 1.568,-0.64973 0.64972,-0.64972 0.64972,-1.568 z m 0,-17.74176 q 0,-0.90095 -0.65839,-1.55934 -0.65838,-0.65839 -1.55933,-0.65839 -0.90095,0 -1.55934,0.65839 -0.65839,0.65839 -0.65839,1.55934 0,0.91827 0.64973,1.56799 0.64972,0.64973 1.568,0.64973 0.91827,0 1.568,-0.64973 0.64972,-0.64972 0.64972,-1.56799 z m -6.65317,7.29422 v 3.2053 q 0,0.17326 -0.12128,0.33785 -0.12128,0.1646 -0.27721,0.18193 l -2.68552,0.41582 q -0.19059,0.60641 -0.55443,1.31677 0.58908,0.83165 1.55933,1.99249 0.12128,0.19058 0.12128,0.34652 0,0.20791 -0.12128,0.32919 -0.3985,0.51978 -1.42939,1.55067 -1.0309,1.03089 -1.36009,1.03089 -0.19058,0 -0.36384,-0.12128 l -1.99249,-1.55933 q -0.64106,0.32919 -1.33409,0.5371 -0.19059,1.87121 -0.3985,2.68552 -0.12128,0.41583 -0.51978,0.41583 h -3.22263 q -0.19058,0 -0.34651,-0.12995 -0.15594,-0.12994 -0.17326,-0.3032 l -0.3985,-2.65087 q -0.58909,-0.17326 -1.29945,-0.53711 l -2.04446,1.54201 q -0.12128,0.12128 -0.34652,0.12128 -0.19058,0 -0.36384,-0.1386 -2.49494,-2.30435 -2.49494,-2.77215 0,-0.15594 0.12128,-0.3292 0.17326,-0.24256 0.71036,-0.91827 0.53711,-0.67572 0.81433,-1.05689 -0.3985,-0.76234 -0.60641,-1.42073 l -2.63355,-0.41582 q -0.17326,-0.0173 -0.29454,-0.16459 -0.12128,-0.14727 -0.12128,-0.33786 v -3.2053 q 0,-0.17326 0.12128,-0.33785 0.12128,-0.1646 0.27722,-0.18193 l 2.68552,-0.41582 q 0.19058,-0.60641 0.55443,-1.31677 -0.58908,-0.83165 -1.55934,-1.99249 -0.12128,-0.19058 -0.12128,-0.34652 0,-0.2079 0.12128,-0.34652 0.38118,-0.51977 1.42073,-1.542 1.03956,-1.02224 1.36875,-1.02224 0.19059,0 0.36385,0.12129 l 1.99248,1.55933 q 0.58908,-0.31187 1.3341,-0.55443 0.19058,-1.8712 0.3985,-2.66819 0.12128,-0.41583 0.51977,-0.41583 h 3.22263 q 0.19059,0 0.34652,0.12995 0.15593,0.12994 0.17326,0.3032 l 0.3985,2.65087 q 0.58908,0.17326 1.29944,0.53711 l 2.04446,-1.54201 q 0.13861,-0.12129 0.34652,-0.12129 0.19059,0 0.36385,0.13862 2.49493,2.30434 2.49493,2.77214 0,0.13861 -0.12128,0.3292 -0.20791,0.27721 -0.72769,0.9356 -0.51978,0.65838 -0.77966,1.03956 0.39849,0.83164 0.58908,1.42073 l 2.63354,0.39849 q 0.17326,0.0347 0.29454,0.18192 0.12128,0.14727 0.12128,0.33786 z m 11.08861,9.23473 v 2.42563 q 0,0.27722 -2.58157,0.53711 -0.20791,0.4678 -0.51978,0.90095 0.88363,1.95783 0.88363,2.39098 0,0.0693 -0.0693,0.12128 -2.11377,1.23014 -2.14842,1.23014 -0.13861,0 -0.79699,-0.81432 -0.65839,-0.81432 -0.90095,-1.17816 -0.34652,0.0347 -0.51978,0.0347 -0.17326,0 -0.51978,-0.0347 -0.24256,0.36384 -0.90095,1.17816 -0.65839,0.81432 -0.79699,0.81432 -0.0346,0 -2.14842,-1.23014 -0.0693,-0.052 -0.0693,-0.12128 0,-0.43315 0.88362,-2.39098 -0.31186,-0.43315 -0.51978,-0.90095 -2.58156,-0.25989 -2.58156,-0.53711 v -2.42563 q 0,-0.27722 2.58156,-0.53711 0.22524,-0.50245 0.51978,-0.90094 -0.88362,-1.95784 -0.88362,-2.39099 0,-0.0693 0.0693,-0.12128 0.0693,-0.0347 0.60641,-0.34652 0.5371,-0.31186 1.02223,-0.58908 0.48513,-0.27722 0.51978,-0.27722 0.1386,0 0.79699,0.80566 0.65839,0.80566 0.90095,1.1695 0.34652,-0.0347 0.51978,-0.0347 0.17326,0 0.51978,0.0347 0.88362,-1.23014 1.59398,-1.9405 l 0.10396,-0.0347 q 0.0693,0 2.14842,1.21282 0.0693,0.052 0.0693,0.12128 0,0.43315 -0.88363,2.39098 0.29455,0.3985 0.51978,0.90095 2.58157,0.25989 2.58157,0.5371 z m 0,-17.74177 v 2.42563 q 0,0.27722 -2.58157,0.53711 -0.20791,0.4678 -0.51978,0.90094 0.88363,1.95784 0.88363,2.39098 0,0.0693 -0.0693,0.12129 -2.11377,1.23014 -2.14842,1.23014 -0.13861,0 -0.79699,-0.81432 -0.65839,-0.81432 -0.90095,-1.17816 -0.34652,0.0347 -0.51978,0.0347 -0.17326,0 -0.51978,-0.0347 -0.24256,0.36384 -0.90095,1.17816 -0.65839,0.81432 -0.79699,0.81432 -0.0346,0 -2.14842,-1.23014 -0.0693,-0.052 -0.0693,-0.12129 0,-0.43314 0.88362,-2.39098 -0.31186,-0.43314 -0.51978,-0.90094 -2.58156,-0.25989 -2.58156,-0.53711 v -2.42563 q 0,-0.27721 2.58156,-0.53711 0.22524,-0.50245 0.51978,-0.90095 -0.88362,-1.95783 -0.88362,-2.39098 0,-0.0693 0.0693,-0.12128 0.0693,-0.0347 0.60641,-0.34652 0.5371,-0.31186 1.02223,-0.58908 0.48513,-0.27721 0.51978,-0.27721 0.1386,0 0.79699,0.80565 0.65839,0.80566 0.90095,1.1695 0.34652,-0.0347 0.51978,-0.0347 0.17326,0 0.51978,0.0347 0.88362,-1.23014 1.59398,-1.9405 l 0.10396,-0.0347 q 0.0693,0 2.14842,1.21282 0.0693,0.052 0.0693,0.12128 0,0.43315 -0.88363,2.39098 0.29455,0.3985 0.51978,0.90095 2.58157,0.25989 2.58157,0.5371 z"
       id="path5645" />
    <text
       xml:space="preserve"
       style="font-style:normal;font-weight:normal;font-size:10.58333302px;line-height:1.25;font-family:sans-serif;letter-spacing:0px;word-spacing:0px;fill:#000000;fill-opacity:1;stroke:none;stroke-width:0.26458332"
       x="224.32266"
       y="122.32553"
       id="text5651"><tspan
         sodipodi:role="line"
         id="tspan5649"
         x="224.32266"
         y="122.32553"
         style="fill:#ffffff;stroke-width:0.26458332">kube-proxy</tspan></text>
    <path
       id="path5653"
       d="m 251.62999,99.018042 q 0,-1.83655 -1.29945,-3.136 -1.29944,-1.29944 -3.13599,-1.29944 -1.83655,0 -3.136,1.29944 -1.29945,1.29945 -1.29945,3.136 0,1.836548 1.29945,3.135998 1.29945,1.29944 3.136,1.29944 1.83655,0 3.13599,-1.29944 1.29945,-1.29945 1.29945,-3.135998 z m 13.30633,8.870878 q 0,-0.90094 -0.65839,-1.55933 -0.65838,-0.65839 -1.55933,-0.65839 -0.90095,0 -1.55934,0.65839 -0.65839,0.65839 -0.65839,1.55933 0,0.91828 0.64973,1.568 0.64972,0.64973 1.568,0.64973 0.91827,0 1.568,-0.64973 0.64972,-0.64972 0.64972,-1.568 z m 0,-17.741758 q 0,-0.90095 -0.65839,-1.55934 -0.65838,-0.65839 -1.55933,-0.65839 -0.90095,0 -1.55934,0.65839 -0.65839,0.65839 -0.65839,1.55934 0,0.91827 0.64973,1.56799 0.64972,0.64973 1.568,0.64973 0.91827,0 1.568,-0.64973 0.64972,-0.64972 0.64972,-1.56799 z m -6.65317,7.29422 v 3.205298 q 0,0.17326 -0.12128,0.33785 -0.12128,0.1646 -0.27721,0.18193 l -2.68552,0.41582 q -0.19059,0.60641 -0.55443,1.31677 0.58908,0.83165 1.55933,1.99249 0.12128,0.19058 0.12128,0.34652 0,0.20791 -0.12128,0.32919 -0.3985,0.51978 -1.42939,1.55067 -1.0309,1.03089 -1.36009,1.03089 -0.19058,0 -0.36384,-0.12128 l -1.99249,-1.55933 q -0.64106,0.32919 -1.33409,0.5371 -0.19059,1.87121 -0.3985,2.68552 -0.12128,0.41583 -0.51978,0.41583 h -3.22263 q -0.19058,0 -0.34651,-0.12995 -0.15594,-0.12994 -0.17326,-0.3032 l -0.3985,-2.65087 q -0.58909,-0.17326 -1.29945,-0.53711 l -2.04446,1.54201 q -0.12128,0.12128 -0.34652,0.12128 -0.19058,0 -0.36384,-0.1386 -2.49494,-2.30435 -2.49494,-2.77215 0,-0.15594 0.12128,-0.3292 0.17326,-0.24256 0.71036,-0.91827 0.53711,-0.67572 0.81433,-1.05689 -0.3985,-0.76234 -0.60641,-1.42073 l -2.63355,-0.41582 q -0.17326,-0.0173 -0.29454,-0.16459 -0.12128,-0.14727 -0.12128,-0.33786 v -3.205298 q 0,-0.17326 0.12128,-0.33785 0.12128,-0.1646 0.27722,-0.18193 l 2.68552,-0.41582 q 0.19058,-0.60641 0.55443,-1.31677 -0.58908,-0.83165 -1.55934,-1.99249 -0.12128,-0.19058 -0.12128,-0.34652 0,-0.2079 0.12128,-0.34652 0.38118,-0.51977 1.42073,-1.542 1.03956,-1.02224 1.36875,-1.02224 0.19059,0 0.36385,0.12129 l 1.99248,1.55933 q 0.58908,-0.31187 1.3341,-0.55443 0.19058,-1.8712 0.3985,-2.66819 0.12128,-0.41583 0.51977,-0.41583 h 3.22263 q 0.19059,0 0.34652,0.12995 0.15593,0.12994 0.17326,0.3032 l 0.3985,2.65087 q 0.58908,0.17326 1.29944,0.53711 l 2.04446,-1.54201 q 0.13861,-0.12129 0.34652,-0.12129 0.19059,0 0.36385,0.13862 2.49493,2.30434 2.49493,2.77214 0,0.13861 -0.12128,0.3292 -0.20791,0.27721 -0.72769,0.9356 -0.51978,0.65838 -0.77966,1.03956 0.39849,0.83164 0.58908,1.42073 l 2.63354,0.39849 q 0.17326,0.0347 0.29454,0.18192 0.12128,0.14727 0.12128,0.33786 z m 11.08861,9.234728 v 2.42563 q 0,0.27722 -2.58157,0.53711 -0.20791,0.4678 -0.51978,0.90095 0.88363,1.95783 0.88363,2.39098 0,0.0693 -0.0693,0.12128 -2.11377,1.23014 -2.14842,1.23014 -0.13861,0 -0.79699,-0.81432 -0.65839,-0.81432 -0.90095,-1.17816 -0.34652,0.0347 -0.51978,0.0347 -0.17326,0 -0.51978,-0.0347 -0.24256,0.36384 -0.90095,1.17816 -0.65839,0.81432 -0.79699,0.81432 -0.0346,0 -2.14842,-1.23014 -0.0693,-0.052 -0.0693,-0.12128 0,-0.43315 0.88362,-2.39098 -0.31186,-0.43315 -0.51978,-0.90095 -2.58156,-0.25989 -2.58156,-0.53711 v -2.42563 q 0,-0.27722 2.58156,-0.53711 0.22524,-0.50245 0.51978,-0.90094 -0.88362,-1.95784 -0.88362,-2.39099 0,-0.0693 0.0693,-0.12128 0.0693,-0.0347 0.60641,-0.34652 0.5371,-0.31186 1.02223,-0.58908 0.48513,-0.27722 0.51978,-0.27722 0.1386,0 0.79699,0.80566 0.65839,0.80566 0.90095,1.1695 0.34652,-0.0347 0.51978,-0.0347 0.17326,0 0.51978,0.0347 0.88362,-1.23014 1.59398,-1.9405 l 0.10396,-0.0347 q 0.0693,0 2.14842,1.21282 0.0693,0.052 0.0693,0.12128 0,0.43315 -0.88363,2.39098 0.29455,0.3985 0.51978,0.90095 2.58157,0.25989 2.58157,0.5371 z m 0,-17.741768 v 2.42563 q 0,0.27722 -2.58157,0.53711 -0.20791,0.4678 -0.51978,0.90094 0.88363,1.95784 0.88363,2.39098 0,0.0693 -0.0693,0.12129 -2.11377,1.23014 -2.14842,1.23014 -0.13861,0 -0.79699,-0.81432 -0.65839,-0.81432 -0.90095,-1.17816 -0.34652,0.0347 -0.51978,0.0347 -0.17326,0 -0.51978,-0.0347 -0.24256,0.36384 -0.90095,1.17816 -0.65839,0.81432 -0.79699,0.81432 -0.0346,0 -2.14842,-1.23014 -0.0693,-0.052 -0.0693,-0.12129 0,-0.43314 0.88362,-2.39098 -0.31186,-0.43314 -0.51978,-0.90094 -2.58156,-0.25989 -2.58156,-0.53711 v -2.42563 q 0,-0.27721 2.58156,-0.53711 0.22524,-0.50245 0.51978,-0.90095 -0.88362,-1.95783 -0.88362,-2.39098 0,-0.0693 0.0693,-0.12128 0.0693,-0.0347 0.60641,-0.34652 0.5371,-0.31186 1.02223,-0.58908 0.48513,-0.27721 0.51978,-0.27721 0.1386,0 0.79699,0.80565 0.65839,0.80566 0.90095,1.1695 0.34652,-0.0347 0.51978,-0.0347 0.17326,0 0.51978,0.0347 0.88362,-1.23014 1.59398,-1.9405 l 0.10396,-0.0347 q 0.0693,0 2.14842,1.21282 0.0693,0.052 0.0693,0.12128 0,0.43315 -0.88363,2.39098 0.29455,0.3985 0.51978,0.90095 2.58157,0.25989 2.58157,0.5371 z"
       style="fill:#009688;stroke:#00bcd4;stroke-width:0.01732595"
       inkscape:connector-curvature="0" />
    <text
       id="text5659"
       y="30.101902"
       x="218.32936"
       style="font-style:normal;font-weight:normal;font-size:10.58333302px;line-height:1.25;font-family:sans-serif;letter-spacing:0px;word-spacing:0px;fill:#009688;fill-opacity:1;stroke:none;stroke-width:0.26458332"
       xml:space="preserve"><tspan
         style="fill:#009688;stroke-width:0.26458332"
         y="30.101902"
         x="218.32936"
         id="tspan5657"
         sodipodi:role="line">Node N</tspan></text>
    <text
       xml:space="preserve"
       style="font-style:normal;font-weight:normal;font-size:10.58333302px;line-height:1.25;font-family:sans-serif;letter-spacing:0px;word-spacing:0px;fill:#ffffff;fill-opacity:1;stroke:none;stroke-width:0.26458332"
       x="208.79692"
       y="85.734238"
       id="text5669"><tspan
         sodipodi:role="line"
         id="tspan5667"
         x="208.79692"
         y="85.734238"
         style="fill:#ffffff;stroke-width:0.26458332">...</tspan></text>
  </g>
  <g
     inkscape:groupmode="layer"
     id="layer3"
     inkscape:label="communications-inter-nodes-fig[3-]"
     sodipodi:insensitive="true"
     transform="translate(23.561326,24.069659)">
    <path
       style="fill:none;stroke:#ffffff;stroke-width:0.5;stroke-linecap:butt;stroke-linejoin:miter;stroke-miterlimit:4;stroke-dasharray:none;stroke-opacity:1;marker-start:url(#marker5734);marker-end:url(#marker5682)"
       d="M 60.170231,42.119753 V 12.625223 H 175.86335 v 30.468726"
       id="path5672"
       inkscape:connector-curvature="0" />
    <path
       style="fill:none;stroke:#ffffff;stroke-width:0.5;stroke-linecap:butt;stroke-linejoin:miter;stroke-miterlimit:4;stroke-dasharray:none;stroke-opacity:1;marker-end:url(#marker5824)"
       d="m 175.86335,12.625223 h 80.7154 v 29.266012"
       id="path5814"
       inkscape:connector-curvature="0"
       sodipodi:nodetypes="ccc" />
  </g>
  <g
     inkscape:groupmode="layer"
     id="layer4"
     inkscape:label="developper-fig[4-]"
     transform="translate(23.561326,24.069659)"
     sodipodi:insensitive="true">
    <g
       id="g6402"
       transform="translate(3.8547612,21.166667)">
      <path
         id="path2-7"
         d="m -18.440345,-10.177857 q -0.611874,0 -1.025074,-0.414638 -0.414638,-0.4132 -0.414638,-1.025075 0,-0.61188 0.414638,-1.025079 0.4132,-0.414633 1.025074,-0.414633 h 1.439713 v -18.716284 q 0,-1.187762 0.846553,-2.034316 0.845116,-0.84511 2.032878,-0.84511 H 8.9142214 q 1.1877616,0 2.0343146,0.84511 0.845116,0.846554 0.845116,2.034316 v 18.716284 h 1.439712 q 0.61188,0 1.025074,0.414633 0.414638,0.413199 0.414638,1.025079 0,0.611875 -0.414638,1.025075 -0.413194,0.414638 -1.025074,0.414638 z m 13.6772832,-2.879425 h 4.31914309 q 0.28794352,0 0.50390122,-0.215958 0.21595236,-0.215958 0.21595236,-0.503901 0,-0.287943 -0.21595236,-0.503901 Q -0.15597519,-14.497 -0.44391871,-14.497 H -4.7630618 q -0.2879435,0 -0.5039011,0.215958 -0.2159527,0.215958 -0.2159527,0.503901 0,0.287943 0.2159527,0.503901 0.2159576,0.215958 0.5039011,0.215958 z m -9.3581392,-4.319143 H 8.9142214 V -31.773566 H -14.121201 Z m 0,0 v -14.397141 z"
         style="fill:#ffffff;stroke-width:1.43971372"
         inkscape:connector-curvature="0" />
      <text
         id="text6117"
         y="-37.192993"
         x="-28.442671"
         style="font-style:normal;font-weight:normal;font-size:10.58333302px;line-height:1.25;font-family:sans-serif;letter-spacing:0px;word-spacing:0px;fill:#ffffff;fill-opacity:1;stroke:none;stroke-width:0.26458332"
         xml:space="preserve"><tspan
           style="fill:#ffffff;stroke-width:0.26458332"
           y="-37.192993"
           x="-28.442671"
           id="tspan6115"
           sodipodi:role="line">Developer</tspan></text>
    </g>
    <path
       style="fill:none;stroke:#ffffff;stroke-width:0.5;stroke-linecap:butt;stroke-linejoin:miter;stroke-miterlimit:4;stroke-dasharray:none;stroke-opacity:1;marker-end:url(#marker6307)"
       d="M 60.170231,12.625223 V -2.60914 H -1.7372519"
       id="path6119"
       inkscape:connector-curvature="0"
       sodipodi:nodetypes="ccc" />
  </g>
  <g
     inkscape:groupmode="layer"
     id="layer5"
     inkscape:label="users-fig[5-]"
     transform="translate(23.561326,24.069659)"
     sodipodi:insensitive="true">
    <path
       inkscape:connector-curvature="0"
       style="fill:#ffffff;stroke-width:0.01796091"
       d="m 204.805,-15.192865 h -6.90216 c -0.95236,0 -1.72425,0.771886 -1.72425,1.724245 V 1.4748592 c 0,0.9523625 0.77189,1.7242491 1.72425,1.7242491 h 6.90216 c 0.95236,0 1.72425,-0.7718866 1.72425,-1.7242491 V -13.46862 c 0,-0.952359 -0.77189,-1.724245 -1.72425,-1.724245 z m 0.57475,16.6677242 c 0,0.317262 -0.25748,0.5747497 -0.57475,0.5747497 h -6.90216 c -0.31726,0 -0.57475,-0.2574877 -0.57475,-0.5747497 V -13.46862 c 0,-0.317258 0.25749,-0.57475 0.57475,-0.57475 h 6.90216 c 0.31727,0 0.57475,0.257492 0.57475,0.57475 z m -4.02497,-2.29583422 c -0.63366,0 -1.14662,0.5135402 -1.14662,1.1463389 0,0.6327986 0.51325,1.14664102 1.14662,1.14664102 0.63367,0 1.14663,-0.51382652 1.14663,-1.14662512 0,-0.6328146 -0.51296,-1.1463548 -1.14663,-1.1463548 z m 1.1495,-12.64764498 h -2.299 c -0.31726,0 -0.57475,0.257487 -0.57475,0.574749 0,0.317262 0.25749,0.57475 0.57475,0.57475 h 2.299 c 0.31726,0 0.57475,-0.257488 0.57475,-0.57475 0,-0.317262 -0.25749,-0.574749 -0.57475,-0.574749 z"
       id="path2-0" />
    <path
       id="path6627"
       d="m 225.97169,-15.192865 h -6.90216 c -0.95236,0 -1.72425,0.771886 -1.72425,1.724245 V 1.4748592 c 0,0.9523625 0.77189,1.7242491 1.72425,1.7242491 h 6.90216 c 0.95236,0 1.72425,-0.7718866 1.72425,-1.7242491 V -13.46862 c 0,-0.952359 -0.77189,-1.724245 -1.72425,-1.724245 z m 0.57475,16.6677242 c 0,0.317262 -0.25748,0.5747497 -0.57475,0.5747497 h -6.90216 c -0.31726,0 -0.57475,-0.2574877 -0.57475,-0.5747497 V -13.46862 c 0,-0.317258 0.25749,-0.57475 0.57475,-0.57475 h 6.90216 c 0.31727,0 0.57475,0.257492 0.57475,0.57475 z m -4.02497,-2.29583422 c -0.63366,0 -1.14662,0.5135402 -1.14662,1.1463389 0,0.6327986 0.51325,1.14664102 1.14662,1.14664102 0.63367,0 1.14663,-0.51382652 1.14663,-1.14662512 0,-0.6328146 -0.51296,-1.1463548 -1.14663,-1.1463548 z m 1.1495,-12.64764498 h -2.299 c -0.31726,0 -0.57475,0.257487 -0.57475,0.574749 0,0.317262 0.25749,0.57475 0.57475,0.57475 h 2.299 c 0.31726,0 0.57475,-0.257488 0.57475,-0.57475 0,-0.317262 -0.25749,-0.574749 -0.57475,-0.574749 z"
       style="fill:#ffffff;stroke-width:0.01796091"
       inkscape:connector-curvature="0" />
    <text
       xml:space="preserve"
       style="font-style:normal;font-weight:normal;font-size:10.58333302px;line-height:1.25;font-family:sans-serif;letter-spacing:0px;word-spacing:0px;fill:#ffffff;fill-opacity:1;stroke:none;stroke-width:0.26458332"
       x="207.6828"
       y="-5.4306703"
       id="text6631"><tspan
         sodipodi:role="line"
         id="tspan6629"
         x="207.6828"
         y="-5.4306703"
         style="fill:#ffffff;stroke-width:0.26458332">...</tspan></text>
    <text
       xml:space="preserve"
       style="font-style:normal;font-weight:normal;font-size:10.58333302px;line-height:1.25;font-family:sans-serif;letter-spacing:0px;word-spacing:0px;fill:#ffffff;fill-opacity:1;stroke:none;stroke-width:0.26458332"
       x="195.22609"
       y="-15.298698"
       id="text6635"><tspan
         sodipodi:role="line"
         id="tspan6633"
         x="195.22609"
         y="-15.298698"
         style="fill:#ffffff;stroke-width:0.26458332">Users</tspan></text>
    <path
       style="fill:none;stroke:#ffffff;stroke-width:0.5;stroke-linecap:butt;stroke-linejoin:miter;stroke-miterlimit:4;stroke-dasharray:none;stroke-opacity:1;marker-start:url(#marker6811);marker-end:url(#marker6911)"
       d="M 211.85565,-3.3020836 V 99.318452 h -32.12797"
       id="path6637"
       inkscape:connector-curvature="0" />
    <path
       style="fill:none;stroke:#ffffff;stroke-width:0.5;stroke-linecap:butt;stroke-linejoin:miter;stroke-miterlimit:4;stroke-dasharray:none;stroke-opacity:1;marker-end:url(#marker7019)"
       d="m 211.85565,99.318452 h 23.907"
       id="path7009"
       inkscape:connector-curvature="0" />
  </g>
</svg>
